<?xml version="1.0" standalone="no"?>
<!DOCTYPE svg PUBLIC "-//W3C//DTD SVG 1.1//EN" "http://www.w3.org/Graphics/SVG/1.1/DTD/svg11.dtd" >
<svg xmlns="http://www.w3.org/2000/svg">
<metadata>
Created by FontForge 20120731 at Fri Feb 19 10:00:19 2016
 By Ads
</metadata>
<defs>
<font id="iconfont" horiz-adv-x="1024" >
  <font-face 
    font-family="iconfont"
    font-weight="500"
    font-stretch="normal"
    units-per-em="1024"
    panose-1="2 0 6 3 0 0 0 0 0 0"
    ascent="896"
    descent="-128"
    x-height="792"
    bbox="-2 -134 1073 899"
    underline-thickness="50"
    underline-position="-100"
    unicode-range="U+0078-E703"
  />
<missing-glyph horiz-adv-x="374" 
d="M34 0v682h272v-682h-272zM68 34h204v614h-204v-614z" />
    <glyph glyph-name=".notdef" horiz-adv-x="374" 
d="M34 0v682h272v-682h-272zM68 34h204v614h-204v-614z" />
    <glyph glyph-name=".null" horiz-adv-x="0" 
 />
    <glyph glyph-name="nonmarkingreturn" horiz-adv-x="341" 
 />
    <glyph glyph-name="x" unicode="x" horiz-adv-x="1001" 
d="M281 543q-27 -1 -53 -1h-83q-18 0 -36.5 -6t-32.5 -18.5t-23 -32t-9 -45.5v-76h912v41q0 16 -0.5 30t-0.5 18q0 13 -5 29t-17 29.5t-31.5 22.5t-49.5 9h-133v-97h-438v97zM955 310v-52q0 -23 0.5 -52t0.5 -58t-10.5 -47.5t-26 -30t-33 -16t-31.5 -4.5q-14 -1 -29.5 -0.5
t-29.5 0.5h-32l-45 128h-439l-44 -128h-29h-34q-20 0 -45 1q-25 0 -41 9.5t-25.5 23t-13.5 29.5t-4 30v167h911zM163 247q-12 0 -21 -8.5t-9 -21.5t9 -21.5t21 -8.5q13 0 22 8.5t9 21.5t-9 21.5t-22 8.5zM316 123q-8 -26 -14 -48q-5 -19 -10.5 -37t-7.5 -25t-3 -15t1 -14.5
t9.5 -10.5t21.5 -4h37h67h81h80h64h36q23 0 34 12t2 38q-5 13 -9.5 30.5t-9.5 34.5q-5 19 -11 39h-368zM336 498v228q0 11 2.5 23t10 21.5t20.5 15.5t34 6h188q31 0 51.5 -14.5t20.5 -52.5v-227h-327z" />
    <glyph glyph-name="uniE600" unicode="&#xe600;" 
d="M938 57l-214 216q-2 2 -6 5q-2 1 -2 2q18 28 30.5 59t19.5 65.5t7 69.5q0 98 -47.5 180t-129 130t-177.5 48q-42 0 -82 -9.5t-74.5 -27t-65.5 -42t-55 -55.5t-41.5 -66.5t-27 -75.5t-9.5 -82q0 -97 47.5 -179t129 -130t178.5 -48q104 0 193 58l1 -1l5 -7l214 -216
q22 -22 53 -22t53 22t22 53t-22 53zM419 230q-101 0 -172 71.5t-71 173t71 173t171.5 71.5t171.5 -71.5t71 -173.5q0 -66 -32.5 -122t-88.5 -89t-121 -33z" />
    <glyph glyph-name="uniE601" unicode="&#xe601;" 
d="M150 605l362 -362l362 362h86l-415 -416l-22 -21q-5 -5 -11 -5t-11 5l-21 21l-416 416h86z" />
    <glyph glyph-name="uniE602" unicode="&#xe602;" 
d="M886 52h-717q-9 0 -16 4t-11 11t-4 15q0 13 9 22t22 9h62v225q0 12 9 21t22 9q6 0 11.5 -2.5t9.5 -6.5t6.5 -9.5t2.5 -11.5v-225h471v225q0 12 9 21t21.5 9t21 -9t8.5 -21v-225h63q13 0 22 -9t9 -21.5t-9 -21.5t-22 -9zM815 409q-12 0 -24 3l-12 4q-1 0 -2 1
q-16 6 -29 17v0l-5 5q-30 -30 -72 -30q-21 0 -39.5 8t-32.5 22q-14 -14 -32.5 -22t-39.5 -8q-41 0 -71 30q-10 -9 -21 -15.5t-24 -10.5t-27 -4q-21 0 -39.5 8t-32.5 22q-7 -8 -16 -13l-1 -1q-4 -3 -9 -5h-1l-1 -1l-9 -4h-1q-17 -6 -34 -6q-42 0 -72 30t-30 73v47q0 10 6 18
l123 168q9 12 25 12h471q7 0 13.5 -3t11.5 -9l123 -168q6 -8 6 -18v-47q0 -43 -30 -73t-72 -30zM781 487l1 -1l2 -2l-22 -21l23 20q0 -1 1 -1.5t2 -1.5q5 -5 12 -7q3 -1 5 -2l10 -1q8 0 15.5 3.5t13 9t9 13t3.5 16.5v37l-108 147h-441l-108 -147v-37q0 -18 12 -30t29 -12
q4 0 7.5 0.5t6.5 1.5v1v0q2 0 4 1q1 1 2 1.5t2 0.5q0 1 1 1q7 5 12 12v1q1 1 1.5 2t1.5 2q2 4 3 8.5t1 9.5q0 8 4 15t11 11t15 4q13 0 22 -9t9 -21q0 -18 12 -30t29 -12q11 0 20.5 5.5t15 15t5.5 21.5q0 4 1 8t3 7t5 6t6.5 5t7.5 3t8 1q8 0 15 -4t11 -11t4 -15q0 -18 12 -30
t29 -12q5 0 10 1t9 3t7.5 5t6.5 6.5t5 7.5t3 9t1 10q0 12 9 21t21.5 9t21.5 -9t9 -21t5.5 -21.5t15 -15t20.5 -5.5q17 0 29 12t12 30q0 12 9 21t21.5 9t21.5 -9t9 -21q0 -11 5 -20l1 -1q1 -2 2 -3v-1z" />
    <glyph glyph-name="uniE603" unicode="&#xe603;" 
d="M886 372l-381 382h-1v1q-3 4 -7 6.5t-9 4.5t-10 2h-316q-14 0 -23.5 -10t-9.5 -23v-316q0 -17 13 -27v0l382 -382q6 -6 15 -8.5t17.5 0t14.5 8.5l315 315q7 7 9 15.5t0 17t-9 14.5zM262 701q13 0 24.5 -6.5t18.5 -18t7 -25.5q0 -20 -15 -34.5t-35.5 -14.5t-35 14.5
t-14.5 35t14.5 35t35.5 14.5zM262 701z" />
    <glyph glyph-name="uniE604" unicode="&#xe604;" 
d="M789 64zM725 64q0 26 19 45t45.5 19t45 -19t18.5 -45t-18.5 -45t-45 -19t-45.5 19t-19 45zM320 64zM256 64q0 26 19 45t45 19t45 -19t19 -45t-19 -45t-45 -19t-45 19t-19 45zM341 555l-170 170h-128v-85h86l170 -169v-300h469l128 384h-555zM709 256h-325v213h389z" />
    <glyph glyph-name="uniE605" unicode="&#xe605;" 
d="M864 786h-703q-27 0 -47 -20t-20 -47v-670q0 -27 20 -47t47 -20h703q18 0 33.5 9t24.5 24.5t9 33.5v670q0 27 -19.5 47t-47.5 20zM864 83q0 -14 -9.5 -24t-23.5 -10h-636q-14 0 -24 10t-10 24v602q0 7 3 13t7.5 10.5t10.5 7.5t13 3h636q14 0 23.5 -10t9.5 -24v-602z
M764 586q0 7 -3 13.5t-7.5 11t-11 7.5t-13.5 3q-14 0 -24 -10t-11 -24v-1q0 -1 1 -2v-4q1 -8 1 -12q0 -50 -24.5 -92.5t-67 -67t-92.5 -24.5q-76 0 -130 54t-54 130q0 4 1 12q0 5 1 7h-1q0 7 -3 12.5t-7.5 10t-10.5 7t-13 2.5q-13 0 -23 -9.5t-10 -22.5h-1v-18
q0 -104 73.5 -178t178.5 -74q68 0 126 34t92 92t34 126q0 5 -1 17z" />
    <glyph glyph-name="uniE606" unicode="&#xe606;" 
d="M589 741q-83 0 -141.5 -58.5t-58.5 -141.5q0 -56 29 -103t77 -73q-100 -30 -163 -114.5t-63 -190.5q0 -8 5.5 -13.5t13.5 -5.5t13.5 5.5t5.5 13.5q0 116 82.5 199t197.5 83q2 -1 3.5 -0.5t2.5 0.5q81 2 138 60t57 139q0 54 -26.5 100t-72.5 73t-100 27zM588.5 380
q-66.5 0 -114 47.5t-47.5 114t47.5 114t114 47.5t114 -47.5t47.5 -114t-47.5 -114t-114 -47.5zM815 286q-4 3 -8.5 4.5t-9.5 0t-9 -4.5q-6 -6 -6 -14t6 -13q82 -83 82 -199q0 -5 2.5 -9.5t7 -7t9.5 -2.5q4 0 7.5 1.5t6 4t4 6t1.5 7.5q0 42 -10.5 82.5t-31.5 77t-51 66.5z
M387 375v0q0 3 -0.5 5.5t-2 4.5t-3 3.5t-3.5 3t-4.5 2t-5.5 0.5q-52 0 -88.5 39.5t-36.5 94.5q0 27 10 52t26.5 43t40 28.5t48.5 10.5q4 0 7.5 1.5t6 4t4 6t1.5 7.5q0 8 -5.5 13.5t-13.5 5.5q-33 0 -63.5 -13.5t-52 -36.5t-34.5 -55t-13 -67q0 -46 22 -85.5t58 -62.5
q-78 -28 -127.5 -99t-49.5 -161q0 -8 6 -13.5t13.5 -5.5t13.5 5.5t6 13.5q0 98 64.5 167t156.5 69q3 0 6 1t5.5 3t4 4t2.5 5t1 6z" />
    <glyph glyph-name="uniE607" unicode="&#xe607;" 
d="M775 340l-40 -39l-381 -382q-5 -4 -10 -7t-11 -4.5t-12 -1.5t-11.5 1.5t-11 4.5t-9.5 7l-40 40q-13 14 -13 33t13 32l349 349l-349 349q-9 9 -12 20.5t0 23.5t12 21l40 39q6 7 15 10.5t17.5 3.5t17 -3.5t15.5 -10.5l381 -381l40 -40q9 -8 12 -20t0 -24t-12 -21zM775 340z
" />
    <glyph glyph-name="uniE608" unicode="&#xe608;" 
d="M182 -20l-74 74l734 734l74 -74l-734 -734v0zM842 -20l-734 734l74 74l734 -734l-74 -74v0zM842 -20z" />
    <glyph glyph-name="uniE609" unicode="&#xe609;" 
d="M512 683l-256 -256h171v-342h170v342h171z" />
    <glyph glyph-name="uniE60A" unicode="&#xe60a;" 
d="M950 258h-616h-166h-143l427 -322l-49 198h548zM74 510h782h143l-439 322l49 -198h-536zM74 510z" />
    <glyph glyph-name="uniE60B" unicode="&#xe60b;" 
d="M555 832l-448 -448l448 -448l81 80l-367 368l367 367z" />
    <glyph glyph-name="uniE60C" unicode="&#xe60c;" 
d="M152 736q-12 0 -24 -5t-20.5 -13.5t-13.5 -20.5t-5 -24q0 -27 18.5 -45t44.5 -18q18 0 32.5 8t23 22.5t8.5 32.5q0 26 -18.5 44.5t-45.5 18.5zM937 739h-623q-11 0 -19 -7.5t-8 -18.5v-72q0 -10 8 -18t19 -8h623q10 0 18 8t8 18v72q0 11 -8 18.5t-18 7.5zM937 464h-623
q-11 0 -19 -7.5t-8 -18.5v-71q0 -11 8 -18.5t19 -7.5h623q10 0 18 7.5t8 18.5v71q0 11 -8 18.5t-18 7.5zM937 189h-623q-11 0 -19 -7.5t-8 -18.5v-71q0 -7 3.5 -13t9.5 -9.5t14 -3.5h623q7 0 13 3.5t9.5 9.5t3.5 13v71q0 8 -3.5 13.5t-9.5 9t-13 3.5zM152.5 461
q-17.5 0 -32 -8.5t-23 -23t-8.5 -31.5q0 -13 5 -24.5t13.5 -20t20.5 -13.5t24 -5q27 0 45.5 18.5t18.5 44.5q0 17 -8.5 31.5t-23 23t-32 8.5zM152.5 186q-26.5 0 -45 -18.5t-18.5 -44.5t18.5 -44.5t45 -18.5t45 18.5t18.5 44.5t-18.5 44.5t-45 18.5z" />
    <glyph glyph-name="uniE60D" unicode="&#xe60d;" 
d="M968 372h48v92l-145 124v189h-122v-93l-212 192h-48l-481 -432v-72h48l466 405zM521 731l-416 -359l287 -70v142h261v-142l288 46zM105 372v-480h285v382h265l-2 28h-261zM655 274l-2 28l288 46v-456h-286v382z" />
    <glyph glyph-name="uniE60E" unicode="&#xe60e;" 
d="M966 -79q-9 -14 -18.5 -21.5t-17 -8.5t-15 1.5t-13.5 7t-10 9.5t-6 9l-3 3q-18 94 -68.5 168.5t-129 119t-172.5 44.5q-55 0 -103.5 -11.5t-83 -30.5t-63.5 -44t-47.5 -52.5t-33 -55t-22 -52.5t-12.5 -44t-6 -30l-1 -12q-13 -18 -26.5 -24.5t-23.5 -3t-17.5 9.5t-11.5 12
l-4 6q0 128 77 234t200 152q-42 29 -73 69t-48.5 90t-17.5 104q0 131 93 224t224 93q87 0 160 -42.5t115.5 -115.5t42.5 -159q0 -42 -10.5 -81.5t-30 -73.5t-47 -63t-60.5 -50q181 -68 253 -258q26 -69 30 -123zM748 570q0 97 -68.5 165.5t-166.5 68.5q-63 0 -117 -31
t-85.5 -85t-31.5 -118q0 -97 68.5 -166t165.5 -69q39 0 74.5 12t64.5 33.5t50.5 50.5t33.5 65t12 74z" />
    <glyph glyph-name="uniE60F" unicode="&#xe60f;" 
d="M69 95h886l-443 578z" />
    <glyph glyph-name="uniE610" unicode="&#xe610;" 
d="M0 640l513 -513l513 513h-1026z" />
    <glyph glyph-name="uniE611" unicode="&#xe611;" 
d="M614 153l-17 -36q66 -9 107 -28.5t41 -37.5q0 -7 -7.5 -15t-21 -16t-34 -15t-45.5 -12.5t-57 -8.5t-66 -3q-51 0 -96 7t-74 17.5t-45.5 22.5t-16.5 23q0 7 6.5 14.5t18 14.5t30 14t40 12.5t49.5 9.5t58 5l30 -61l200 419q32 55 32 119q0 99 -68 169t-164 70t-164 -70
t-68 -169q0 -9 0.5 -18t2 -18t3.5 -18t4.5 -17.5t5.5 -16.5t7 -16t8 -15l153 -320q-29 -2 -56.5 -6.5t-52.5 -11t-45.5 -15.5t-35.5 -20.5t-23 -25t-8 -29.5q0 -34 40 -59.5t100 -37.5t129 -12t129 12t100 37.5t40 59.5q0 38 -47 64.5t-122 37.5zM416 627.5q0 41.5 28.5 71
t69.5 29.5q26 0 48.5 -13.5t35.5 -36.5t13 -50.5t-13 -50.5t-35.5 -36.5t-48.5 -13.5q-41 0 -69.5 29.5t-28.5 71z" />
    <glyph glyph-name="uniE612" unicode="&#xe612;" 
d="M812 132l-127 128q17 22 29.5 48t19 55.5t6.5 59.5q0 111 -79 190t-190 79t-190 -79t-79 -190t79 -190t190 -79q94 0 168 59l127 -127q3 -4 7 -6t8 -3t8 -1q14 0 23.5 9.5t9.5 23t-10 23.5zM327 279q-59 60 -59 144t59.5 144t143.5 60t144 -60t60 -144t-60 -143.5
t-144 -59.5q-41 0 -78 15t-66 44z" />
    <glyph glyph-name="uniE613" unicode="&#xe613;" 
d="M455 146v-6v-6q0 -2 -0.5 -5.5t-0.5 -6.5q0 -38 12 -72q10 -34 31 -63h-248q-17 0 -36 9q-9 5 -18 11t-17 14q-17 15 -28 34.5t-11 40.5v522q0 8 2 17.5t6 18.5q2 3 3.5 6.5t3 6.5t3.5 5.5t4 5.5l4 6q2 3 5 5q13 16 31 26.5t38 10.5h60v-105h372v105h52q10 0 19.5 -2
t19 -6t18.5 -10t16.5 -13t14 -15.5t10.5 -18.5q10 -21 10 -43v-299q-10 7 -20 12.5t-21 10t-23 8.5q-34 10 -72 10h-6q8 3 14 8t11 12q4 4 6 9t3 10.5t1 10.5q0 22 -16 37q-7 8 -16.5 11.5t-20.5 3.5h-372q-22 0 -38 -15q-8 -7 -12 -16.5t-4 -20.5q0 -22 16 -37
q16 -16 38 -16h356l-20 -4q-10 -2 -19.5 -5.5t-18.5 -7.5t-17.5 -8.5t-17.5 -10.5q-20 -13 -37.5 -30.5t-30.5 -38.5h-195q-22 0 -38 -15.5t-16 -37.5t16 -37q16 -16 38 -16h156zM814 137q5 6 10 14q4 9 -3 16l-8 8l-5 5l-3 3q-9 5 -16.5 1t-15.5 -12q-5 -4 -9.5 -9
t-9.5 -9.5t-9.5 -9.5t-9.5 -10q-20 -19 -36 -35q-3 -3 -6.5 -4.5t-7 -2.5t-6.5 0.5t-5 4.5l-8 8q-6 6 -12 13l-11 13l-1 1q-6 6 -7 8q-3 2 -5.5 3t-6.5 2q-6 1 -13 -5l-4 -3l-4 -3l-3 -4q-3 -4 -7 -7l-4 -4q-13 -13 3 -31l7 -6q3 -4 7 -9q9 -9 18 -19l3 -3l4 -3q0 -1 2 -3.5
t3.5 -3.5t3 -3t3.5 -3q9 -11 16 -16q6 -7 18 -6.5t18 7.5q13 11 28 27l31 31q17 16 33 32l6 6q3 3 6 5.5t5.5 5.5t5.5 5.5t5 4.5zM699 306q38 0 72 -14q17 -8 32 -18t27.5 -22.5t22.5 -27t18 -31.5q15 -34 15 -72q0 -39 -15 -72q-15 -34 -41 -59q-25 -26 -59 -40t-72 -14
q-40 0 -74 14t-59 40q-13 12 -23 27t-17 32q-5 11 -8.5 22.5t-5 24t-1.5 25.5q0 38 15 72t40 59q6 6 13 11.5t14.5 10.5t15.5 9.5t16 8.5q17 7 35.5 10.5t38.5 3.5zM485 721q3 0 6.5 1t6.5 2t5.5 3t4.5 4q10 10 10 23q0 15 -10 24q-4 4 -10 6.5t-13 2.5q-14 0 -24 -9
q-4 -5 -6.5 -11t-2.5 -13q0 -13 9.5 -23t23.5 -10zM618 674h-266v105h53q0 22 15 38q6 5 11.5 8t12.5 5t14 2h53q23 0 38 -15q5 -6 8.5 -11.5t5 -12t1.5 -14.5h54v-105z" />
    <glyph glyph-name="uniE614" unicode="&#xe614;" 
d="M530 49h-291q-21 0 -39 10.5t-28 28t-10 38.5v565q0 32 22.5 54.5t54.5 22.5h477q15 0 29.5 -6t25 -16.5t16.5 -24.5t6 -30v-349q0 -5 -3.5 -8.5t-9.5 -3.5q-3 0 -6 1.5t-4.5 4.5t-1.5 6v349q0 22 -15.5 37t-36.5 15h-477q-22 0 -37.5 -15t-15.5 -37v-565q0 -22 15.5 -37
t37.5 -15h291q6 0 9.5 -4t3.5 -9t-3.5 -8.5t-9.5 -3.5zM719 0q-39 0 -72.5 19.5t-52.5 52.5t-19 72q0 59 42 101.5t101.5 42.5t101.5 -42.5t42 -101.5q0 -39 -19 -72t-52 -52.5t-72 -19.5zM718.5 263q-49.5 0 -84 -35t-34.5 -84q0 -32 15.5 -59.5t43 -43.5t60 -16t60 16
t43.5 43.5t16 59.5q0 49 -35 84t-84.5 35zM718.5 132q-2.5 0 -4.5 1t-4 2.5t-3 3.5t-1 5v74q0 5 4 8.5t9 3.5t8.5 -3.5t3.5 -8.5v-74q0 -3 -1 -5t-2.5 -3.5t-4 -2.5t-5 -1zM778 132h-60q-5 0 -8.5 3.5t-3.5 8.5t3.5 8.5t8.5 3.5h60q5 0 9 -3.5t4 -8.5q0 -3 -1 -5t-3 -4
t-4 -2.5t-5 -0.5zM462 434q-4 0 -8 3q-9 8 -2 17l125 163q8 10 17.5 2.5t2.5 -17.5l-125 -163q-5 -4 -10 -5zM462 194q-3 0 -5 1t-3.5 3t-2.5 4t-1 5v236l-123 159q-2 3 -2.5 6.5t1 6.5t3.5 5q10 7 18 -3l125 -163l2 -7v-240q0 -2 -0.5 -4t-1.5 -3.5t-2.5 -2.5t-3.5 -2
t-4 -1zM590 431h-256q-5 0 -9 4t-4 9q0 3 2 6t5 4.5t6 1.5h256q5 0 9 -3.5t4 -8.5q0 -3 -1 -5t-3 -4t-4 -3t-5 -1zM610 339h-296q-5 0 -9 3.5t-4 8.5q0 3 1 5t3 4t4 2.5t5 0.5h296q4 0 6.5 -1.5t4.5 -4.5t2 -6t-2 -6t-4.5 -4.5t-6.5 -1.5z" />
    <glyph glyph-name="uniE615" unicode="&#xe615;" 
d="M842 465q-1 5 -3.5 9t-5.5 7.5t-6.5 6t-7.5 4.5t-8.5 3t-8.5 1h-190l-59 189q-4 14 -15.5 22.5t-25.5 8.5t-25 -8.5t-16 -22.5l-58 -189h-190q-9 0 -17.5 -3.5t-14.5 -11t-9 -16.5t-2 -18.5t5.5 -17.5t12.5 -14l153 -116l-58 -189q-5 -14 -0.5 -27.5t16 -22t25 -8.5
t25.5 8l153 117l154 -117q11 -8 25 -8t25 8q8 6 12.5 14t5.5 17.5t-2 18.5l-59 189l154 116q11 9 15.5 22.5t-0.5 27.5z" />
    <glyph glyph-name="uniE616" unicode="&#xe616;" 
d="M529 128q-8 0 -17.5 3t-16.5 8t-13 9.5t-9 7.5l-4 3v88q-35 5 -52 6q28 15 54 47.5t41 77.5v88q0 55 -37 93t-91 38t-91 -38t-37 -93v-88q37 -101 97 -125q-34 -3 -68.5 -12t-55 -17.5t-56.5 -25.5t-52 -24q-83 -36 -77 -113q1 -11 3 -18h657v85h-175zM512 277v-106h256
v-114l234 183l-234 197v-160h-256z" />
    <glyph glyph-name="uniE617" unicode="&#xe617;" 
d="M286 175zM207 175.5q0 21.5 10.5 39.5t29 28.5t39.5 10.5q16 0 30.5 -6t25 -16.5t17 -25.5t6.5 -31q0 -32 -23 -55t-56 -23q-21 0 -39.5 10.5t-29 28.5t-10.5 39.5zM779 175zM701 175.5q0 21.5 10.5 39.5t28.5 28.5t39 10.5q33 0 56 -23t23 -55.5t-23 -55.5t-56 -23
q-21 0 -39 10.5t-28.5 28.5t-10.5 39.5zM957 676h-519v-451h236q8 19 23.5 34.5t37.5 24.5t46 9q37 0 66 -19t41 -49h69v451zM177 550l-114 -124v-202h117q12 30 40.5 49t63.5 19q29 0 54 -13.5t40 -35.5v307h-201zM307 343h-169v61l64 77h105v-138z" />
    <glyph glyph-name="uniE618" unicode="&#xe618;" 
d="M420 685q0 29 21.5 50t51.5 21h80q12 0 23.5 -3.5t20 -10.5t15.5 -15.5t10.5 -19.5t3.5 -22v-173h96v173q0 68 -49.5 116t-119.5 48h-80q-70 0 -119 -48t-49 -116v-80h95v80zM233 462v-261q0 -103 75 -176t180 -73h79q105 0 180 73t75 176v261h-589zM565 230v-114
q0 -10 -7.5 -17.5t-18 -7.5t-18 7.5t-7.5 17.5v114q-12 5 -21 14t-14.5 21t-5.5 25q0 18 9 33t24.5 23.5t33.5 8.5q27 0 46.5 -19t19.5 -46q0 -10 -3 -19.5t-8.5 -17t-13 -13.5t-16.5 -10z" />
    <glyph glyph-name="uniE619" unicode="&#xe619;" 
d="M512 64q-41 0 -87 7l-209 -198v269q-100 57 -158 146q-57 89 -57 192q0 113 68.5 208.5t186 151t256.5 55.5q35 0 68.5 -3t65.5 -10t62.5 -17.5t60.5 -24.5q117 -56 185.5 -151.5t68.5 -208.5t-68.5 -209t-185.5 -151q-59 -28 -123 -42t-134 -14v0zM243 575
q-17 0 -31.5 -7t-26 -20.5t-17.5 -30.5t-6 -37q0 -40 23.5 -68t57.5 -28q11 0 21 3t19 9.5t17 16t13.5 20t8 22.5t2.5 25q0 40 -23.5 67.5t-57.5 27.5v0zM512 575q-17 0 -31.5 -7t-25.5 -20q-24 -28 -24 -68t23.5 -68t57.5 -28q11 0 21 3t19 9.5t17 15.5q12 14 18 31t6 37
q0 40 -23.5 67.5t-57.5 27.5v0zM781 575q-17 0 -31.5 -7t-26 -20.5t-17.5 -30.5t-6 -37q0 -40 23.5 -68t57.5 -28q11 0 21 3t19 9.5t17 15.5q12 14 18 31t6 37q0 40 -23.5 67.5t-57.5 27.5v0z" />
    <glyph glyph-name="uniE61A" unicode="&#xe61a;" 
d="M512 825q-117 0 -216.5 -57.5t-157.5 -157t-58 -217t58 -217t157.5 -157.5t216.5 -58q70 0 136 22t119 62t93 93t62 119t22 136q0 118 -58 217.5t-157.5 157t-216.5 57.5zM512 11q-104 0 -192 51t-139 139t-51 192q0 78 30 149t81.5 122t122 81.5t148.5 30.5t148.5 -30.5
t122 -81.5t81.5 -122t30 -149q0 -151 -103 -262q-102 -108 -250 -119q-15 -1 -29 -1zM625 320q22 33 22 73q0 7 -1 14l-2 14h-110l83 57q-29 35 -72 45l-31 -100l-32 101q-14 -3 -26.5 -9t-23.5 -14.5t-20 -18.5l88 -61h-119q-2 -14 -2 -28q0 -42 24 -77l95 68l-41 -113
q26 -12 56 -12q6 0 12 0.5t12 2.5l12 2q6 2 11.5 4t11.5 5l-45 112zM206 622q-67 -90 -75 -201h250q4 17 11.5 32.5t19.5 28.5zM403 316l-202 -144q66 -93 171 -135l85 234q-16 8 -30 19t-24 26zM572 273l93 -231q104 46 167 141l-207 137q-7 -10 -15 -18.5t-18 -16
t-20 -12.5zM894 421q-8 109 -72 197l-205 -140q20 -25 27 -57h250zM545 523l73 238q-12 4 -25 6.5t-26.5 4.5t-27 3t-26.5 1q-54 0 -104 -15l73 -237q15 3 31 3h8q4 0 8 -0.5t8 -1.5zM684 649l-140 -125q-16 3 -32 3q-56 0 -95 -39t-39 -95q0 -22 7 -42t19 -36.5t28.5 -29
t37 -19.5t42.5 -7q36 0 67 18t49 49t18 67q0 40 -22 74z" />
    <glyph glyph-name="uniE61B" unicode="&#xe61b;" 
d="M389 428l-262 192v-462q2 5 5 8zM629 435l264 -269l2 -2q1 -1 1 -2v468q-2 -1 -267 -195zM821 641h-635l318 -232zM585 404l-63 -47q-7 -5 -15 -5q-3 0 -5.5 1t-5.5 2q-3 0 -6.5 1t-6.5 3l-51 38l-263 -267l-2 -2h689l-1 2z" />
    <glyph glyph-name="uniE61C" unicode="&#xe61c;" 
d="M760 532h-69q0 83 -55.5 139t-137 56t-137.5 -56t-56 -139h-69q0 49 21 97t55.5 85t83.5 60t102 23q70 0 131.5 -38.5t96 -99.5t34.5 -127zM801 418q0 29 -20 49t-49 20h-461q-12 0 -22.5 -3.5t-19 -10t-15 -15t-10 -19t-3.5 -21.5v-328q0 -29 20.5 -49t49.5 -20h461
q29 0 49 20t20 49v328zM557 161q0 -14 -7 -26t-19 -19t-26 -7h-7q-22 0 -37 15.5t-15 36.5v141q0 11 4 20.5t11 16.5t16.5 11t20.5 4h7q14 0 26 -7t19 -19t7 -26v-141z" />
    <glyph glyph-name="uniE61D" unicode="&#xe61d;" 
d="M781 203q-2 0 -4 1q-32 8 -47.5 12t-40 12.5t-35 17.5t-20.5 21.5t-8.5 29.5t11.5 38q39 76 54 143.5t7.5 115t-30.5 81.5t-58 50.5t-78 16.5t-78.5 -17t-58.5 -52t-30 -82.5t8 -114t54 -141.5q9 -18 10.5 -33.5t-2 -26.5t-16 -21t-23 -16t-32.5 -13t-35 -10.5t-40 -10.5
q-4 -1 -6 -1q-19 -5 -33 -12t-23.5 -13.5t-16 -19t-10 -21t-5 -26.5t-1.5 -29v-35v-20h676v20v35q0 11 -1.5 29t-5 26.5t-10 21t-16 19t-23.5 13.5t-33 12z" />
    <glyph glyph-name="uniE61E" unicode="&#xe61e;" 
d="M516 186q9 0 17 -3.5t14 -9.5t9.5 -14t3.5 -17q0 -19 -13 -31.5t-31 -12.5q-12 0 -22.5 5.5t-16.5 16t-6 22.5t6 22t16.5 16t22.5 6zM463 251l-43 386q-1 11 3.5 18.5t11.5 7.5h135q7 0 11.5 -7.5t4.5 -18.5l-43 -386q0 -3 -2 -6t-4.5 -4.5t-5.5 -1.5h-56q-5 0 -8.5 3.5
t-3.5 8.5zM507 -115q-101 0 -192.5 39.5t-158 105.5t-105.5 158t-39 192.5t39 192t105.5 158t158 105.5t192.5 39q72 0 151 -21t101 -48q4 -20 -5 -37q-12 -23 -44 -32q-3 -1 -5 -2q-45 25 -95 38.5t-103 13.5q-111 0 -204.5 -54.5t-148 -148t-54.5 -204.5q0 -66 20.5 -128
t58.5 -112t88 -87.5t112 -58t128 -20.5q110 0 204 54.5t148 148t54 203.5q0 35 -3.5 65t-11 58.5t-20 54t-29.5 49t-39 45.5q-2 4 -2.5 8t0 8t1.5 7.5t3 6.5l6 8q2 3 5.5 5.5t7 4.5t7.5 4q10 3 17.5 4t14.5 -0.5t15 -6.5q61 -65 89 -143t28 -178t-39.5 -192t-105.5 -158
t-157.5 -105.5t-192.5 -39.5z" />
    <glyph glyph-name="uniE61F" unicode="&#xe61f;" 
d="M907 47h-788q-16 0 -28.5 7.5t-20.5 20.5t-8 28v563q0 23 16.5 39.5t40.5 16.5h788q8 0 15 -2t13 -5.5t11.5 -8.5t9 -11.5t5.5 -13.5t2 -15v-563q0 -23 -16.5 -39.5t-39.5 -16.5zM844 603q-3 3 -7.5 5t-8.5 2.5t-8.5 0t-8.5 -2.5t-7 -5l-98 -97l-137 -137
q-25 -23 -58 -23q-30 0 -54 21v-1l-185 184l2 1l-52 52q-9 8 -20.5 8t-19.5 -8q-6 -6 -7.5 -13t0 -14.5t7.5 -12.5l178 -179l-178 -178q-8 -8 -8 -20t8 -20t19.5 -8t20.5 8l178 178l46 -47l8 -7l3 -3q11 -9 24.5 -14t27.5 -5q35 0 60 25v-2l54 54l179 -179q3 -3 6.5 -4.5
t6.5 -2.5t7 -1t7.5 1t6.5 2.5t6 4.5q8 8 8 20t-8 20l-179 179l181 178q5 5 7 12.5t0 14.5t-7 13z" />
    <glyph glyph-name="uniE620" unicode="&#xe620;" 
d="M496 723v57l-196 -82l196 -83v62q88 0 163 -43.5t118.5 -118.5t43.5 -163.5t-43.5 -163.5t-118.5 -118.5t-163 -43.5q-134 0 -228 94q-96 94 -97 228v3h-47q0 -101 50 -186.5t135.5 -135t186.5 -49.5q76 0 144.5 29.5t118.5 79t79.5 118.5t29.5 144.5t-29.5 144.5
t-79.5 118.5t-118.5 79t-144.5 29.5zM691 548h-64q-3 -10 -9 -21.5t-19 -33.5l-103 -166l-103 167q-22 33 -29 54h-63q11 -15 35 -52l92 -141h-42q-9 0 -17 0.5t-15.5 1t-14 1.5t-14.5 3v-45q24 5 61 5h64l23 -35v-28h-87q-13 0 -23 0.5t-19 1.5t-19 3v-45q34 6 61 6h87v-59
q0 -40 -5 -67h55q-5 28 -5 67v59h87q28 0 61 -6v45q-26 -5 -61 -5h-87v28l24 35h63q14 0 23 -0.5t19 -1.5t20 -3v45q-31 -6 -62 -6h-42l91 141q23 35 37 52z" />
    <glyph glyph-name="uniE621" unicode="&#xe621;" 
d="M364 227q0 -3 2 -6q2 -4 21 -16q11 -7 22 -12q3 -1 7 -3t8.5 -3.5t8.5 -2.5q13 -4 28 -7q7 -1 14.5 -2t16.5 -2q16 -1 42 -2t62 -1q9 0 18 0.5t18 0.5h16h17q34 1 62 3q31 1 46 2h16q13 1 21 -6q9 -7 12.5 -17t2.5 -22q-1 -4 -1.5 -7.5t-2 -6.5t-3.5 -5q-6 -9 -17 -13
q-10 -3 -57 -3q-48 -2 -89 -2l-133 2q-18 1 -33 2.5t-27.5 3.5t-22.5 4q-29 6 -52.5 17.5t-40.5 28.5q-8 7 -16 7q-7 0 -14 -5q-6 -6 -26 -31q-9 -13 -15.5 -20.5t-10.5 -10.5q-7 -5 -20 -5q-3 0 -6.5 1t-7.5 2q-8 3 -14 8t-10 12l-2 4v4l-2 4v4q1 10 5 18q0 2 1.5 3.5
t2.5 3.5t3 4t4 4.5t4 5.5l6 6q2 3 5 6q11 11 24 23t26 23q3 4 3 8v172q0 5 -0.5 8t-1.5 4.5t-3 2t-5 0.5h-35q-9 0 -16.5 2.5t-13 8t-8 12t-2.5 14.5q0 15 11 26q5 5 12.5 7.5t16.5 2.5h71q14 0 24.5 -4.5t15.5 -12.5q12 -17 12 -55v-192zM379 599q0 -4 -0.5 -8t-2 -7.5
t-4 -7t-5.5 -6.5q-6 -7 -12.5 -10.5t-13.5 -3.5q-14 0 -24 8q-25 19 -87 55q-9 6 -13.5 12t-4.5 13q0 3 0.5 6.5t2.5 7.5q2 8 7 15q5 6 12 11q4 2 8 3t9 1q20 0 55 -22q18 -11 32 -20t23 -15q9 -8 13.5 -15.5t4.5 -16.5zM768 416q6 0 13 -4q2 -1 4.5 -2t4.5 -3l4 -4
q5 -5 8.5 -12t3.5 -13q0 -7 -4 -14t-12 -15q-17 -15 -54 -39q-5 -4 -5 -6t4 -4q29 -17 44 -26q17 -11 25 -17q18 -12 18 -26t-12 -28q-13 -14 -27 -14t-35 13q-92 59 -212 122q-11 7 -16.5 13.5t-5.5 12.5q0 5 1 9.5t4 9.5t7 9q4 5 8.5 8.5t9 5t9.5 1.5q8 0 17 -4l78 -41
q7 -4 10 -4q8 1 38 24q33 25 33 27t-10 2h-227q-10 0 -10 -10v-108q0 -10 6.5 -10t32.5 7q5 1 8.5 2.5t7 2.5t6.5 2q4 1 7.5 2.5t6.5 1.5q1 1 4.5 2t4.5 1q4 1 8 1q17 0 26 -14q8 -14 8 -24.5t-7 -18.5q-4 -4 -13.5 -9.5t-24.5 -11.5q-17 -7 -33 -12t-32 -7q-5 -1 -10 -1.5
t-9.5 -1t-8.5 -1.5q-10 -1 -18 -1q-13 0 -22 3.5t-14 10.5q-11 15 -11 48v363q0 39 15 52t68 13h229q34 0 49 -15t15 -50v-150q-1 -30 -13 -48zM705 582v12q0 8 -2 11q-4 4 -11 4h-201q-5 0 -7 -3q-1 -1 -1.5 -4t-0.5 -8v-12q0 -10 9 -10h204q10 0 10 10zM705 484v14
q0 9 -10 9h-204q-9 0 -9 -9v-20q0 -10 9 -10h201q13 0 13 16zM1024 384q0 -139 -68.5 -257t-186.5 -186.5t-257 -68.5t-257 68.5t-186.5 186.5t-68.5 257t68.5 257t186.5 186.5t257 68.5t257 -68.5t186.5 -186.5t68.5 -257zM512 803q-114 0 -210.5 -56t-152.5 -152.5
t-56 -210.5t56 -210.5t152.5 -152.5t210.5 -56q85 0 162.5 33t134 89.5t89.5 134t33 162.5t-33 162.5t-89.5 134t-134 89.5t-162.5 33z" />
    <glyph glyph-name="uniE622" unicode="&#xe622;" 
d="M303 729q0 28 -16 47.5t-38.5 19.5t-38.5 -19.5t-16 -47.5v-75q0 -28 16 -47.5t38 -19.5q15 0 27.5 9t20 24.5t7.5 33.5v75zM895 309v346q0 18 -6 31t-15 19t-17.5 8.5t-14.5 2.5h-6h-30v-4v-9v-15v-18v-20v-20v-21q0 -20 -11.5 -31.5t-22.5 -12.5l-11 -2h-92
q-22 0 -33.5 11.5t-12.5 22.5l-1 12v107h-279v-106q0 -21 -11.5 -33t-23.5 -13l-11 -1h-15h-33h-44q-9 0 -16.5 2.5t-12.5 7t-8.5 9.5t-5 10t-2.5 9t-1 6v3v106h-30q-17 0 -29 -6t-18 -15t-10 -18t-4 -16l-1 -6v-591q0 -17 6.5 -29.5t15.5 -18t18 -9t15 -4.5h7h493h41
l-38 41q-43 44 -46 101.5t38 100.5q42 42 102.5 42.5t103.5 -41.5q1 0 19 15.5t36 31.5zM861 175l-42 -43l-40 44q-20 20 -45 22.5t-41 -13.5t-13.5 -41t22.5 -45l72 -72l6 -6l4 -4q22 -22 54 -10l7 3q12 6 21 15l72 73q20 19 22.5 44.5t-13.5 41.5t-41 13t-45 -22zM768 729
q0 28 -16.5 47.5t-39.5 19.5q-22 0 -37 -19.5t-15 -47.5v-75q0 -28 15.5 -47.5t38.5 -19.5t38.5 19.5t15.5 47.5v75zM297 625z" />
    <glyph glyph-name="uniE623" unicode="&#xe623;" 
d="M481 680zM483 328h28v-112h-28v112zM899 832h-775q-9 0 -16.5 -2t-14.5 -6t-12.5 -9.5t-9 -12t-6 -14.5t-2.5 -16v-776q0 -25 18 -42.5t43 -17.5h775q25 0 42.5 17.5t17.5 42.5v776q0 25 -17.5 42.5t-42.5 17.5zM219 633q7 4 14 3.5t13.5 -4.5t9.5 -11l56 -112
q6 -11 2 -22t-14 -16q-6 -3 -13 -3q-3 0 -6 0.5t-5.5 2t-5 3.5t-4.5 4.5t-4 5.5l-56 112q-5 10 -1.5 21t14.5 16zM203 132q-3 0 -5.5 0.5t-5.5 1.5q-10 5 -14.5 15.5t0.5 21.5l84 196q4 11 15 15t21.5 -0.5t15 -15t-0.5 -21.5l-84 -196q-3 -8 -10 -12.5t-16 -4.5zM427 188
v168q0 8 4 14.5t10.5 10t13.5 3.5h84q8 0 14.5 -3.5t10 -10t3.5 -14.5v-168q0 -12 -8 -20t-20 -8h-84q-11 0 -19.5 8t-8.5 20zM427 468.5q0 11.5 8.5 19.5t19.5 8h84q8 0 14.5 -3.5t10 -10t3.5 -14.5q0 -11 -8 -19.5t-20 -8.5h-84q-11 0 -19.5 8.5t-8.5 20zM736 470
q0 8 4.5 14t11 9.5t14.5 2.5q11 -1 18.5 -9.5t6.5 -20.5q0 -3 -0.5 -8.5t-3.5 -20.5t-7.5 -31t-13.5 -40t-20 -48.5t-28 -55t-37 -60.5q12 -30 30.5 -48.5t43.5 -21.5q8 7 15 17t14 36t7 59q0 6 2.5 11t6 9t9 6t10.5 2q8 0 14.5 -3.5t10 -10t3.5 -14.5q0 -35 -7 -64.5
t-15.5 -46.5t-20.5 -30.5t-17.5 -17.5t-10.5 -6q-6 -3 -13 -3q-76 0 -120 75q-5 -6 -10.5 -12.5t-11 -13.5t-11 -13.5t-12 -13.5t-12.5 -14t-13 -14l-14 -14q-8 -8 -19.5 -8t-19.5 8q-6 6 -8 13t0 14t8 13q54 55 98 114q-6 20 -11 41.5t-7 38t-3 33t-1.5 23t-0.5 10.5v168
h-196v-196q0 -7 -0.5 -19t-5.5 -42.5t-14 -59t-27.5 -63t-44.5 -60.5q-8 -8 -19.5 -8t-20.5 8q-5 6 -7 13t0 14t7 13q16 15 28.5 34.5t20 38t13 39t8.5 35.5t4.5 29.5t1.5 19.5v8v224q0 3 1 6.5t2 5.5l4 6q1 2 3.5 4t5.5 3.5t6 2t6 0.5h224v112q0 12 8.5 20t20 8t19.5 -8
t8 -20v-112h84q-17 0 -25 16l-28 56q-2 5 -2.5 10.5t1 10.5t5.5 9.5t9 6.5q7 4 14 3.5t13.5 -4.5t9.5 -11l28 -56q4 -7 3.5 -14.5t-4.5 -13.5t-11 -10q-6 -3 -13 -3h84q8 0 14.5 -3.5t10 -10t3.5 -14.5q0 -11 -8 -19.5t-20 -8.5h-168v-168q0 -3 0.5 -11.5t2.5 -29.5t6 -41
q14 24 25.5 47.5t19 41.5t13.5 36t9 29.5t5 22.5t2.5 14.5t1.5 4.5z" />
    <glyph glyph-name="uniE624" unicode="&#xe624;" 
d="M678 465h25v7h-25v23h27v7h-35v-69h37v7h-29v25zM360 548h-80q-41 0 -64 -23q-19 -20 -19 -65v-66q0 -3 0.5 -5.5t2 -5t3.5 -4.5q6 -6 14 -6h150q2 0 4 0.5t3.5 1.5t3.5 3q4 5 4 10v138q0 9 -6.5 15.5t-15.5 6.5zM813 497h-65q-3 0 -5.5 -1.5t-4 -4t-1.5 -5.5v-37
q0 -5 3 -8t8 -3h65q10 2 11 11v37q-2 10 -11 11zM628 465h25v7h-25v23h27v7h-35v-69h37v7h-29v25zM513 433h8v31h25v7h-25v24h27v7h-35v-69zM512.5 829q-90.5 0 -173.5 -35t-142.5 -95t-95 -142.5t-35.5 -173.5t35.5 -173.5t95 -142.5t142.5 -95t173.5 -35t173.5 35
t142.5 95t95 142.5t35.5 173.5t-35.5 173.5t-95 142.5t-142.5 95t-173.5 35zM502 579h315q14 0 16 -13h-346q1 5 5 9t10 4zM487 562h346v-2h-346v2zM487 558h346v-176h-346v176zM487 378h346v-11q0 -6 -4.5 -11t-11.5 -5h-315q-6 0 -10.5 5t-4.5 11v11zM330 187
q-15 0 -28 7.5t-20.5 20.5t-7.5 28q0 24 16.5 40.5t39.5 16.5q16 0 29 -7.5t20.5 -20.5t7.5 -29q0 -23 -16.5 -39.5t-40.5 -16.5zM457 255q0 -6 -4.5 -10.5t-10.5 -4.5h-40v1l1 1q0 30 -21 50.5t-50.5 20.5t-50.5 -20.5t-21 -50.5v-2h-65q-4 0 -7.5 1.5t-6.5 4.5q-6 6 -6 15
v215q0 37 26.5 63.5t64.5 26.5h168q5 0 9 -1.5t7 -4.5q7 -7 7 -16v-289zM664 187q-15 0 -28 7.5t-20.5 20.5t-7.5 28q0 24 16.5 40.5t40 16.5t40 -16.5t16.5 -40t-16.5 -40t-40.5 -16.5zM843 249q-8 -8 -19 -8h-89v1q0 30 -21 50.5t-50.5 20.5t-50 -20.5t-20.5 -50.5v-1
h-107q-3 0 -5.5 1t-4.5 4q-4 5 -5 10v57q0 10 6.5 16.5t15.5 6.5h338q8 0 13.5 -6t5.5 -15v-45q0 -6 -2 -11t-5 -10zM595 458l-2 3l-2 2q-2 1 -3 2q3 1 6 2.5t5 4t3 5.5t1 7q0 2 -0.5 4t-1.5 4l-4 6l-7 3q-4 1 -8 1h-21v-69h8v30h7q2 0 4 -1t3.5 -2t3.5 -3q0 -1 1 -2t2 -3
l11 -19h10l-13 21q-1 2 -3 4zM586 471q-3 -1 -6 -1h-11v25h11q4 0 6.5 -1t4.5 -2q3 -3 3 -9l-1 -5q-1 -3 -3 -5l-2 -1q-1 -1 -2 -1z" />
    <glyph glyph-name="uniE625" unicode="&#xe625;" 
d="M699 654q0 3 -1 5.5t-2 4.5q-3 4 -7.5 5.5t-10.5 1.5h-320h-3h-6v-1q-8 -2 -13.5 -6.5t-9 -10.5t-3.5 -14v-96q0 -9 4.5 -16t12 -11.5t15.5 -4.5h3q13 0 22.5 9.5t9.5 22.5v61h229l-216 -485q-3 -5 -4 -9q0 -3 1 -4.5t3 -3t5 -2.5t7 -2q8 -1 23 -1h5h4h4h3q2 0 4 1
q8 0 13 2q5 3 8 6q4 3 6 8l205 474q3 6 5 12l3 12q1 2 1.5 5t0.5 7q1 6 1 14q0 10 -2 16zM512 -96q-130 0 -240.5 64.5t-175 175t-64.5 240.5t64.5 240.5t175 175t240.5 64.5q71 0 138 -20t126 -59q7 -5 9 -14.5t-3 -17t-14.5 -9.5t-17.5 3q-108 71 -238 71
q-88 0 -168.5 -34.5t-138.5 -92.5t-92.5 -138.5t-34.5 -168.5q0 -71 22 -137t62 -119.5t93.5 -93.5t119.5 -62t137 -22q88 0 168.5 34.5t138.5 92.5t92.5 138.5t34.5 168.5q0 104 -46 196q-5 8 -2 17t12 13q3 2 6.5 2.5t7 0t7 -2t6 -4t4.5 -6.5q51 -101 51 -216
q0 -130 -64.5 -240.5t-175 -175t-240.5 -64.5z" />
    <glyph glyph-name="uniE626" unicode="&#xe626;" 
d="M429 -64q-7 0 -12.5 2.5t-10.5 6.5l-95 95q-12 13 -8 31q13 48 -22 82q-34 35 -82 22q-18 -5 -31 8l-95 95q-4 5 -6.5 10.5t-2.5 12.5q0 4 1 8t3 8t5 7l500 499q4 4 10 6.5t12 2.5t12 -2.5t11 -6.5l94 -95q4 -4 6.5 -9t3 -10.5t-0.5 -11.5q-6 -22 -0.5 -44t22.5 -38
q15 -16 37.5 -22t44.5 0q6 1 11.5 0.5t10.5 -2.5t9 -6l95 -95q4 -5 6.5 -11t2.5 -12t-2.5 -12t-6.5 -10l-500 -500q-9 -9 -22 -9zM369 73l60 -60l454 454l-60 60q-74 -8 -126 42q-24 25 -35 58t-7 68l-60 60l-454 -454l60 -60q9 1 17.5 1t17 -0.5t17 -2.5t16.5 -4.5t15 -6.5
l16 -8q7 -4 14 -9.5t13 -11.5q24 -25 35 -58t7 -68zM339 263h-5q-2 0 -4 1l-6 2q-2 1 -4 2.5t-4 3.5q-9 9 -9 22.5t9 22.5l256 256q3 3 7 5t8 3t8 1t8 -1t8 -3t7 -5t5 -6.5t3 -7.5t1 -8.5t-1 -8.5t-3 -7.5t-5 -6.5l-256 -256q-5 -5 -11 -7t-12 -2zM429.5 172
q-13.5 0 -22.5 9q-6 6 -8.5 14.5t0 16.5t8.5 15l256 256q9 9 22.5 9t22.5 -9q6 -7 8.5 -15t0 -16.5t-8.5 -14.5l-256 -256q-9 -9 -22.5 -9z" />
    <glyph glyph-name="uniE627" unicode="&#xe627;" 
d="M512 799q113 0 208.5 -55.5t151 -151t55.5 -208.5t-55.5 -208.5t-151 -151t-208.5 -55.5q-172 0 -293.5 121.5t-121.5 293.5q0 161 108 279q106 116 260 133q24 3 47 3zM512 831q-73 0 -141 -22.5t-123 -64t-96.5 -96.5t-64 -123t-22.5 -141q0 -91 35.5 -173.5
t95.5 -142.5t142.5 -95.5t173.5 -35.5t173.5 35.5t142.5 95.5t95.5 142.5t35.5 173.5q0 52 -12 102.5t-34 94.5t-52.5 82.5t-69 69t-82.5 52.5t-94.5 34t-102.5 12zM545 628q16 -44 20 -65h87h47q29 2 43 4v-45q-40 3 -90 5h-287v-21q11 -209 -54 -346q-19 10 -41 16
q-6 3 -10 3q21 27 34.5 60.5t20.5 73.5q6 38 6 93q2 41 0 161q22 -2 197 -4q0 -1 -2 2l-2 2q-6 18 -20 49zM528 512q16 0 27 -1.5t17.5 -3.5t8.5 -5q-1 -2 -2 -4.5t-2 -5.5q-2 -3 -3.5 -6.5t-2 -7t-0.5 -6.5v-165h45h49q24 0 34 2v-43h-41q-35 2 -42 2h-45v-57h71
q38 -1 61.5 -0.5t32.5 2.5v-41q-15 3 -43 4h-51h-187q-69 3 -85 -2v39q8 -2 40 -2h47h75v57h-46q-43 -2 -82 -4v47q7 -1 17 -2t22 -2h45h44v165q-2 16 -4 40zM494 343q-15 31 -43 65q-10 -22 -35 -65l-2 -4q-1 -2 -2 -3.5t-2 -2.5q-14 12 -40 16q56 59 71 151
q23 -6 35.5 -10t13.5 -6l-6 -8q-7 -9 -9 -13q-2 -2 -4 -8t-3 -10t-1 -6q39 -43 63 -69q-24 -15 -36 -27zM573 358q49 52 67 138q51 -12 47 -18l-6 -6q-6 -7 -8 -13q-4 -6 -10 -28q29 -23 77 -65l-39 -31q-8 14 -22 30.5t-35 34.5q-22 -42 -36 -67q-15 18 -35 25z" />
    <glyph glyph-name="uniE628" unicode="&#xe628;" 
d="M884 386l-93 -410h-1v-1q-1 -4 -2 -7q-2 -3 -3 -5l-3 -3l-6 -5h-1h-1q-5 -3 -10 -3h-504l-10 3h-2l-6 5l-2 2l-1 1q-1 1 -1 2l-2 3l-2 7h-1v1l-93 410q-32 4 -54 29.5t-22 61.5q0 38 24.5 65t59.5 27h45l217 238q8 9 19.5 9t20.5 -9q19 -22 0 -44l-178 -194h483l-177 194
q-8 9 -8 22t8 22t19.5 9t20.5 -9l217 -238h41q35 0 59.5 -27t24.5 -65q0 -24 -10 -44t-27.5 -32.5t-38.5 -14.5zM798 261l28 123h-202v-123h174zM770 137l14 62h-160v-62h146zM624 14h118l14 62h-132v-62zM456 45v-31h112v62h-112v-31zM456 137h112v62h-112v-62zM456 261
h112v123h-112v-123zM282 14h118v62h-132zM254 137h146v62h-160zM226 261h174v123h-202zM876 507h-728q-12 0 -20 -9t-8 -21q0 -7 2.5 -12.5t6 -9.5t8.5 -6.5t11 -2.5h728q12 0 20 9t8 22q0 6 -2.5 11.5t-6 9.5t-8.5 6.5t-11 2.5zM876 507z" />
    <glyph glyph-name="uniE629" unicode="&#xe629;" 
d="M512 898q-105 0 -200 -40.5t-164 -109.5t-109.5 -164t-40.5 -200t40.5 -200t109.5 -164t164 -109.5t200 -40.5t200 40.5t164 109.5t109.5 164t40.5 200t-40.5 200t-109.5 164t-164 109.5t-200 40.5zM549 332h-369v45h325v442h44v-487z" />
    <glyph glyph-name="uniE62A" unicode="&#xe62a;" 
d="M163 -27q-1 -1 -2 0l-78 78q-1 1 0 1l398 398q0 1 1 0l79 -78v-1zM615 744l-240 -240l240 -239l239 239zM934 478q-11 11 -26.5 11t-26.5 -11l-240 -240q-7 -7 -9.5 -17t0 -19.5t9.5 -16.5q11 -11 27 -11t26 11l240 240q11 11 11 26.5t-11 26.5zM588 824q-7 7 -17 9.5
t-19.5 0t-16.5 -9.5l-240 -240q-11 -11 -11 -26.5t11 -26.5t26.5 -11t26.5 11l240 240q11 11 11 26.5t-11 26.5z" />
    <glyph glyph-name="uniE62B" unicode="&#xe62b;" 
d="M706 611l-194 284l-194 -284l-317 -125l192 -273v-340l319 136l320 -136v340l191 273zM704 281v-204l-192 68l-191 -68v204l-128 137l192 68l127 204l128 -204l192 -68z" />
    <glyph glyph-name="uniE62C" unicode="&#xe62c;" 
d="M812 -63h-597q-62 0 -105.5 43.5t-43.5 105.5v597q0 62 43.5 105.5t105.5 43.5h226q-27 -46 -27 -100h-199q-20 0 -35 -14.5t-15 -34.5v-597q0 -10 4 -19t11 -16t16 -11t19 -4h597q13 0 24.5 7t18 18.5t6.5 24.5v112l100 75v-187q0 -74 -59 -119q-41 -30 -90 -30z
M692 345q-13 -10 -29 -10q-12 0 -23 5q-27 14 -27 44v48v2q-46 0 -96 -17t-95 -46.5t-84 -67t-67.5 -81.5t-40.5 -86q-15 49 -15 99q0 57 22.5 115.5t62.5 108t89.5 89.5t108.5 62.5t115 22.5v50q0 14 7.5 26t19.5 18q11 5 23 5q16 0 29 -9l199 -150q20 -15 20 -39.5
t-20 -39.5z" />
    <glyph glyph-name="uniE62D" unicode="&#xe62d;" 
d="M380 -128l392 392v-392h-392zM567 -26l80 -61l102 124l-31 24l-73 -87l-47 38z" />
    <glyph glyph-name="uniE62E" unicode="&#xe62e;" 
d="M515 828q-72 0 -140 -22.5t-123 -64t-96 -96t-63.5 -122.5t-22.5 -140.5t22.5 -140.5t63.5 -123t96 -96t123 -63.5t140 -22.5q91 0 173.5 35t142 95t95 142.5t35.5 172.5q0 52 -12 102.5t-34 94t-52.5 82.5t-69 69.5t-82.5 52.5t-94 33.5t-102 11.5zM329 182
q0 -5 -3.5 -8.5t-8.5 -3.5h-23q-3 0 -6 1.5t-4.5 4.5t-1.5 6v23q0 5 3.5 8.5t8.5 3.5h23q5 0 8.5 -3.5t3.5 -8.5v-23zM329 346q0 -5 -3.5 -8.5t-8.5 -3.5h-23q-3 0 -6 2t-4.5 4.5t-1.5 5.5v24q0 5 3.5 8t8.5 3h23q5 0 8.5 -3t3.5 -8v-24zM329 511q0 -5 -3.5 -8.5t-8.5 -3.5
h-23q-3 0 -6 1.5t-4.5 4t-1.5 6.5v23q0 5 3.5 8.5t8.5 3.5h23q4 0 6.5 -1.5t4 -4.5t1.5 -6v-23zM752 182q0 -3 -1 -5t-2.5 -3.5t-3.5 -2.5t-5 -1h-305q-5 0 -8.5 3.5t-3.5 8.5v23q0 3 1 5t2.5 3.5t4 2.5t4.5 1h305q4 0 6.5 -1.5t4 -4.5t1.5 -6v-23zM752 346q0 -5 -3.5 -8.5
t-8.5 -3.5h-305q-5 0 -8.5 3.5t-3.5 8.5v24q0 5 3.5 8t8.5 3h305q4 0 6.5 -1.5t4 -4t1.5 -5.5v-24zM752 511q0 -5 -3.5 -8.5t-8.5 -3.5h-305q-5 0 -8.5 3.5t-3.5 8.5v23q0 5 3.5 8.5t8.5 3.5h305q5 0 8.5 -3.5t3.5 -8.5v-23z" />
    <glyph glyph-name="uniE62F" unicode="&#xe62f;" 
d="M515 896q-23 0 -50 -53q-16 -28 -36.5 -65.5t-39 -71t-34.5 -62.5t-25 -47l-10 -17q-162 -32 -266 -51q-37 -6 -49.5 -34t7.5 -52q33 -39 84 -98t84.5 -97t34.5 -39q-21 -161 -33 -270q-1 -15 2 -27.5t10 -21t16.5 -13t20.5 -4.5q16 0 33 8q39 19 94 46.5t101.5 51
t55.5 27.5q168 -86 248 -126q17 -8 32 -8q24 0 38 17.5t11 48.5l-33 270q14 16 37.5 42.5t77.5 89.5t86 102q20 24 8 52t-49 34q-46 9 -112 22t-109 21l-43 8q-87 164 -142 264q-24 45 -44 52q-3 1 -6 1z" />
    <glyph glyph-name="uniE630" unicode="&#xe630;" 
d="M512 833q92 0 174 -35.5t142.5 -96.5t95.5 -142.5t35 -174.5q0 -92 -35 -174t-95.5 -142.5t-142.5 -95.5t-174 -35q-93 0 -174.5 35t-142.5 95.5t-96.5 142.5t-35.5 174q0 93 35.5 174.5t96.5 142.5t142.5 96.5t174.5 35.5zM253 513h192v65h-192v-65zM558 206
q-11 6 -33 12.5t-42 16t-31.5 22.5t0.5 34q14 26 33.5 32t37.5 2q22 -4 44 -19l29 59q-39 20 -77 25q-33 4 -68 -6.5t-62 -52.5q-10 -17 -12.5 -31t0.5 -26.5t9.5 -23t14.5 -20.5q20 -20 53 -35q-22 2 -39 -6q-15 -6 -27.5 -23.5t-13.5 -52.5q-1 -27 7 -46.5t21.5 -33.5
t31 -22.5t35.5 -12.5q43 -11 98 -6v60q-36 1 -62 5q-24 4 -42 12.5t-16 24.5q4 22 15 31t26 11t32 0.5t32 -2.5t22 8.5t7 21.5t-6.5 24t-16.5 18zM766 578h-193v-65h193v65z" />
    <glyph glyph-name="uniE631" unicode="&#xe631;" 
d="M512 833q93 0 174.5 -35.5t142.5 -96t96.5 -142.5t35.5 -174q0 -93 -35.5 -174.5t-96.5 -142.5t-142.5 -96t-174.5 -35q-92 0 -174 35t-142.5 96t-95.5 142.5t-35 174.5q0 92 35 174t95.5 142.5t142.5 96t174 35.5zM671 643q-35 0 -59 -28.5t-24 -69.5q0 -42 24 -71
t59 -29t59 29t24 71q0 41 -24 69.5t-59 28.5zM254 450h192v63h-192v-63zM766 257q1 2 1 7t-1.5 11.5t-6 11.5t-13.5 8q-23 -29 -58 -51q-30 -20 -75.5 -35.5t-107 -15.5t-104.5 15.5t-72 35.5q-34 22 -58 51q-8 -2 -12 -7t-6 -11.5t-2 -11.5t1 -8q1 -1 0.5 -1.5t0.5 -1.5
q9 -28 32.5 -52t57.5 -42t76.5 -27.5t89.5 -9.5q93 0 160.5 33.5t92.5 89.5q0 2 1 4t3 7z" />
    <glyph glyph-name="uniE632" unicode="&#xe632;" 
d="M512 833q93 0 174.5 -35.5t142.5 -96t96.5 -142.5t35.5 -174q0 -93 -35.5 -174.5t-96.5 -142.5t-142.5 -96t-174.5 -35q-92 0 -174 35t-142.5 96t-95.5 142.5t-35 174.5q0 92 35 174t95.5 142.5t142.5 96t174 35.5zM248 622q13 -43 28 -79q14 -31 30.5 -60t33.5 -38
t36.5 -1t36.5 21q18 15 38 39zM750 84q8 3 12.5 8t6 11.5t1.5 12t-1 7.5q-2 8 -5 11q-12 29 -35.5 52t-56.5 40t-74 26t-88 9t-89.5 -10t-76.5 -28.5t-58 -43t-33 -53.5q-1 -1 -1 -3q-2 -6 1 -20.5t18 -18.5q24 30 58 53q29 21 73 37t105.5 16t107 -16t75.5 -37
q35 -23 60 -53zM681 445q17 9 33.5 38t29.5 60q16 36 29 79l-203 -118q20 -24 38 -39q17 -13 36.5 -21t36.5 1z" />
    <glyph glyph-name="uniE633" unicode="&#xe633;" 
d="M517 843q95 0 179 -36.5t146 -98.5t98.5 -146t36.5 -179t-36.5 -179t-98.5 -146t-146 -98.5t-179 -36.5t-179 36.5t-146 98.5t-98.5 146t-36.5 179t36.5 179t98.5 146t146 98.5t179 36.5zM663.5 635q-15.5 0 -28 -6.5t-23 -18.5t-16 -28t-5.5 -33q0 -36 21.5 -61.5
t51 -25.5t51 25.5t21.5 61.5q0 17 -5.5 33t-15.5 28t-23 18.5t-28.5 6.5zM373.5 635q-29.5 0 -50.5 -25t-21 -61t21 -61.5t50.5 -25.5t50 25.5t20.5 61.5t-20.5 61t-50 25zM520 294q-51 0 -97 -10t-83 -27.5t-62.5 -41.5t-35.5 -51q-1 -1 -1 -2q-1 -3 -1 -9t2.5 -12t7 -11
t12.5 -6q26 28 63 50q31 20 79 35.5t114 15.5q68 0 117 -15.5t82 -35.5q38 -22 63 -50q18 5 20.5 19t0.5 19t-3 7t-1 3q-27 55 -100.5 88.5t-176.5 33.5z" />
    <glyph glyph-name="uniE634" unicode="&#xe634;" 
d="M500 822q91 0 170.5 -34.5t139 -93.5t94 -139t34.5 -170q0 -91 -34.5 -170.5t-94 -139t-139 -94t-170.5 -34.5q-90 0 -170 34.5t-139 94t-93.5 139t-34.5 170.5q0 90 34.5 170t93.5 139t139 93.5t170 34.5zM659 605q-29 0 -49.5 -24t-20.5 -59q0 -34 20.5 -58t49.5 -24
t49 24t20 58q0 35 -20 59t-49 24zM335 603q-28 0 -48 -24t-20 -58q0 -35 20 -59t48 -24t47.5 24t19.5 59q0 34 -19.5 58t-47.5 24zM748 260q1 2 1 7t-1.5 11t-6 11t-12.5 8q-23 -28 -57 -50q-29 -19 -73.5 -34.5t-104.5 -15.5t-102 15.5t-71 34.5q-33 22 -56 50
q-8 -2 -12 -7t-6 -11t-2 -11t1 -8q1 -1 0.5 -1.5t0.5 -1.5q9 -27 32 -50.5t56 -41t74.5 -27t87.5 -9.5q91 0 157 33t90 87q0 2 1 4t3 7z" />
    <glyph glyph-name="uniE635" unicode="&#xe635;" 
d="M513 830q93 0 174.5 -35t142 -95.5t96 -142.5t35.5 -174q0 -93 -35.5 -174.5t-96 -142.5t-142 -96.5t-174.5 -35.5t-174.5 35.5t-142.5 96.5t-96 142.5t-35 174.5q0 92 35 174t96 142.5t142.5 95.5t174.5 35zM274 522q0 -36 20 -60.5t49 -24.5q30 0 50 24.5t20 60.5
q0 35 -20 59.5t-50 24.5q-29 0 -49 -24.5t-20 -59.5zM639 190h-256v-63h256v63zM675 439q30 0 50.5 24.5t20.5 59.5q0 36 -20.5 60.5t-50.5 24.5t-50.5 -24.5t-20.5 -60.5q0 -35 20.5 -59.5t50.5 -24.5z" />
    <glyph glyph-name="uniE636" unicode="&#xe636;" 
d="M723 267l50 -305l-261 144l-261 -144l50 305l-211 216l291 45l131 278l131 -279l291 -44z" />
    <glyph glyph-name="uniE637" unicode="&#xe637;" 
d="M424 588l-99 -101q42 -92 119.5 -172.5t166.5 -110.5l85 85q202 -36 247 -58q56 -27 46 -113q-3 -23 -18 -52.5t-40.5 -59t-66 -49.5t-87.5 -21q-100 -1 -231 68t-235 178q-75 80 -130.5 158.5t-89 168.5t-24.5 166q6 44 25 79.5t41.5 55t49.5 32.5t44.5 17t31.5 5
q54 4 84 -34q12 -15 32 -75.5t35 -113.5zM312 798q-23 30 -73 18q-12 -3 -29 -11.5t-39 -25t-39 -45t-22 -63.5q-11 -88 50 -216t171 -235q233 -226 420 -242q36 -3 67.5 7t53 26t38 36.5t25 36.5t11.5 27q7 25 2 47.5t-18 32.5q-11 8 -66 21t-103.5 22.5t-50.5 9.5l-89 -89
q-36 12 -72 31t-69 43.5t-63 55t-56 64.5t-47 72.5t-36 79.5l98 98l-43 147q-14 42 -21 52z" />
    <glyph glyph-name="uniE638" unicode="&#xe638;" 
d="M251 444h522v-30h-522v30zM251 280h522v-30h-522v30zM251 116h254v-30h-254v30zM884 595v0l-235 236h-30h-9h-470v-894h744v618v39v1zM649 789l195 -196h-195v196zM855 -33h-686v834h450v-208v-15v-15h236v-596z" />
    <glyph glyph-name="uniE639" unicode="&#xe639;" 
d="M889 180l-361 361l-362 -361h-87l416 416l22 21q11 11 21 0l22 -21l416 -416h-87z" />
    <glyph glyph-name="uniE63A" unicode="&#xe63a;" horiz-adv-x="1000" 
d="M514 -25q-13 15 -35.5 41t-79.5 98.5t-100.5 138t-79.5 142.5t-36 127q0 90 44.5 165.5t120.5 119.5t166 44t166.5 -44t120.5 -119.5t44 -165.5q0 -29 -11.5 -66t-30.5 -75.5t-44 -80t-52 -80.5t-54.5 -76t-52.5 -67.5t-44 -53t-31 -35.5zM514 680q-54 0 -92.5 -38
t-38.5 -92t38.5 -92t92.5 -38q36 0 66 17.5t47.5 47t17.5 65.5q0 26 -10.5 50.5t-28 41.5t-41.5 27.5t-51 10.5z" />
    <glyph glyph-name="uniE63B" unicode="&#xe63b;" 
d="M957 739q9 -10 14 -26.5t-6 -34.5l-11 -16q-5 -8 -8 -13q-4 -6 -7 -11l-144 88q6 8 14 20.5t13 19.5q15 18 34.5 21t32.5 -1q14 -3 34.5 -16t33.5 -31zM548 319q3 5 13 22t25.5 43t34.5 56.5t38 62.5q46 74 101 166l144 -88q-55 -93 -100 -166q-20 -32 -38 -62.5
t-33 -55.5t-25.5 -40.5t-11.5 -18.5q-5 -8 -11 -16.5t-14 -13.5q-9 -6 -24.5 -15.5t-32.5 -18.5t-32 -18t-23 -13q-15 -7 -24.5 -2.5t-7.5 22.5q1 9 1.5 26.5t1 36t1.5 34.5t4 23q2 10 4.5 18t8.5 18zM784 292q41 -21 68 -53t27 -71q0 -41 -29 -77.5t-79.5 -63.5t-118.5 -43
t-148 -16q-82 0 -149.5 15.5t-116 42t-75.5 62.5t-27 77t26 78.5t75.5 65.5t120 44t159.5 15l-32 -66q-51 -2 -94.5 -14t-74.5 -31t-48 -43t-15 -48q2 -27 24.5 -48t58 -35t80.5 -21.5t92 -7.5q61 -1 111 9.5t84.5 28t53.5 39.5t19 45q0 19 -9 31t-22 20z" />
    <glyph glyph-name="uniE63C" unicode="&#xe63c;" 
d="M512 884q-91 0 -174 -34.5t-147 -99t-98.5 -147t-34.5 -173.5t34.5 -174t98.5 -147q43 -43 94.5 -72.5t109 -45t117.5 -15.5q91 0 174 34.5t147 98.5q32 32 57 69t41.5 78t25.5 85t9 89q0 91 -34.5 173.5t-98.5 147t-147 99t-174 34.5zM793 149q-56 -56 -129 -86
t-152 -30q-53 0 -103 13.5t-95 39.5t-83 63q-56 56 -86 128.5t-30 152t30 152t86 129.5q38 37 83 63t95 39.5t103 13.5q32 0 63 -5t60 -14.5t57 -23.5t53 -32.5t48 -40.5q16 -16 30 -34t25.5 -36.5t21.5 -38.5t17 -41t12 -42.5t7.5 -43.5t2.5 -45q0 -80 -30 -152.5
t-86 -128.5zM722 371l-182 78v293q0 12 -8 20t-20 8q-8 0 -14.5 -3.5t-10 -10t-3.5 -14.5v-312q0 -19 17 -26l198 -85q2 -1 4 -1l4 -2h3q3 0 6 0.5t5.5 1.5t4.5 2.5t4 3.5t3.5 4.5t3.5 5.5q1 4 1.5 8.5t-0.5 8.5t-3 8t-5.5 7t-7.5 5zM228 458h-28q-12 0 -20 -8t-8 -20t8 -20
t20 -8h28q12 0 20.5 8t8.5 20t-8.5 20t-20.5 8zM767 430q0 -12 8.5 -20.5t20.5 -8.5h28q12 0 20 8.5t8 20.5t-8 20t-20 8h-28q-8 0 -14.5 -3.5t-10.5 -10t-4 -14.5zM512 175q-12 0 -20 -8.5t-8 -20.5v-28q0 -12 8 -20.5t20 -8.5t20 8.5t8 20.5v28q0 12 -8 20.5t-20 8.5z" />
    <glyph glyph-name="uniE63D" unicode="&#xe63d;" 
d="M109 704q20 24 41 46q8 10 16 19t17 17q17 17 26 25q5 3 9 6t8.5 6t9.5 6q14 8 38 8h486q8 0 16.5 -1.5t17.5 -5.5q19 -6 37 -25q3 -4 6.5 -8t8 -9.5t9.5 -10.5q20 -23 28 -33q16 -19 32 -40h-806zM1024 367q0 -18 -6 -33.5t-18 -27.5q-23 -25 -67 -25h-833q-43 0 -68 25
t-25 61v161q0 36 22 62q11 13 29.5 19.5t43.5 6.5h830q17 0 30.5 -3t24 -8.5t17.5 -14.5q20 -26 20 -62v-161zM599 448q0 14 -7 21q-4 3 -9 4.5t-11 1.5h-114q-12 -1 -20 -8q-8 -8 -8 -19q1 -15 8.5 -21.5t19.5 -6.5h114q26 0 27 28zM1021 -41q0 -18 -7 -33.5t-21 -28.5
q-28 -26 -71 -25h-825q-36 0 -65 25q-15 13 -22 30.5t-7 40.5v151q0 18 6 34t17 28q23 26 74 26h827q7 0 13 -0.5t12 -1.5t11 -3l10 -4q5 -2 9.5 -4.5t8 -5.5t6.5 -7q24 -25 24 -61v-161zM596 38.5q0 11.5 -7.5 19.5t-19.5 8h-114q-6 0 -11 -2t-9 -6q-8 -8 -8 -19
q0 -6 2 -10.5t6 -8.5q8 -8 20 -8h114q12 1 20 8q7 7 7 18.5z" />
    <glyph glyph-name="uniE63E" unicode="&#xe63e;" 
d="M925 558q-36 83 -96 143q-61 60 -142.5 95.5t-173.5 35.5q-47 0 -90.5 -9t-84.5 -26q-82 -36 -143 -96q-20 -20 -37.5 -42.5t-32 -47.5t-26.5 -53q-35 -82 -35 -174.5t35.5 -174t96 -142t142.5 -96t174.5 -35.5t174 35.5t142 96t96 142t35.5 174t-35 174.5zM570 334v-176
q0 -6 -6 -11q-2 -2 -4.5 -3t-5 -1.5t-5.5 -0.5h-74q-9 0 -15 5q-3 2 -5 5t-2 6v178l1 112q0 2 0.5 4t2 4t3.5 4q6 4 15 4l74 1q9 0 15.5 -5t6.5 -11zM571 551q0 -10 -6.5 -17t-15.5 -7h-74q-9 0 -15 7q-3 3 -5 7.5t-2 9.5v40q0 10 7 17q3 3 7 5t8 2h74q4 0 8 -2t7 -5.5
t5 -7.5t2 -9v-40z" />
    <glyph glyph-name="uniE63F" unicode="&#xe63f;" 
d="M526 826q-30 0 -59 -5.5t-54.5 -16.5t-49 -27t-43 -35.5t-35.5 -43t-27 -49.5t-17 -54.5t-6 -58.5q0 -79 39 -145.5t106 -105.5t146 -39q59 0 112.5 23t92.5 62t62 92.5t23 112.5t-23 113t-62 92.5t-92.5 61.5t-112.5 23zM750 252q-101 -79 -224 -79q-124 0 -224 79
q-90 -57 -146 -151t-65 -207q86 -11 219 -11h431q133 0 219 11q-8 113 -64.5 207t-145.5 151z" />
    <glyph glyph-name="uniE640" unicode="&#xe640;" 
d="M96 352zM0 352h192h-192zM513 352zM417 352q0 26 13 48.5t35 35t48 12.5q19 0 37 -7.5t31 -20.5t20.5 -30.5t7.5 -37.5q0 -26 -13 -48t-35 -35t-48 -13t-48 13t-35 35t-13 48zM929 352zM833 352q0 40 28 68t67.5 28t68 -28t28.5 -68q0 -26 -13 -48t-35 -35t-48 -13
q-20 0 -37.5 8t-30.5 20.5t-20.5 30.5t-7.5 37z" />
    <glyph glyph-name="uniE641" unicode="&#xe641;" 
d="M952 718q4 -9 6 -21q1 -3 1.5 -5.5t0.5 -5t0.5 -5t0.5 -5.5v-5q0 -13 -5 -26q-2 -5 -4.5 -9t-5.5 -8.5t-6 -8.5q-13 -13 -22 -21t-17 -17q-8 -8 -15 -14l-191 191q13 12 29 27q17 16 28 25q7 5 14.5 9t14.5 7q16 4 30.5 3.5t28.5 -4.5q7 -2 13 -4t11 -5q7 -4 14.5 -9.5
t16 -13t16.5 -16.5q14 -14 24 -29t17 -30v0zM157 220q3 4 29 29q21 22 56 57l74 74l83 83l219 219l191 -191l-219 -220l-82 -82q-38 -37 -73 -73q-34 -35 -55 -55q-21 -21 -25 -24q-10 -10 -23.5 -20t-27.5 -16q-14 -7 -42 -17q-28 -11 -57 -20q-30 -10 -58 -17
q-14 -4 -23.5 -6t-16.5 -3q-27 -3 -36.5 8t-5.5 38q2 13 10 41q7 23 16 56q10 31 17 54q8 24 13 33q7 15 14.5 26.5t21.5 25.5v0zM498 -4q0 8 4.5 15.5t12 12t15.5 4.5h28q8 0 15.5 -4.5t12 -12t4.5 -15.5v-27q0 -13 -9.5 -22.5t-22.5 -9.5h-28q-13 0 -22.5 9.5t-9.5 22.5
v27zM684 -4q0 5 1.5 10t4.5 9t7 7t8.5 4.5t10.5 1.5h27q13 0 22.5 -9.5t9.5 -22.5v-27q0 -9 -4.5 -16t-11.5 -11.5t-16 -4.5h-27q-7 0 -13 2.5t-10 7t-6.5 10t-2.5 12.5v27zM870 -4q0 8 4 15.5t11.5 12t16.5 4.5h27q9 0 16 -4.5t11.5 -12t4.5 -15.5v-27q0 -13 -9.5 -22.5
t-22.5 -9.5h-27q-13 0 -22.5 9.5t-9.5 22.5v27zM870 28z" />
    <glyph glyph-name="uniE642" unicode="&#xe642;" 
d="M512 537q-21 0 -38.5 -10.5t-28 -28t-10.5 -38.5q0 -32 22.5 -54.5t54.5 -22.5t54.5 22.5t22.5 54.5t-22.5 54.5t-54.5 22.5zM512 870q-139 0 -257 -55t-186.5 -149.5t-68.5 -205.5q0 -112 69.5 -206t186.5 -148v-158q0 -28 8.5 -40.5t23 -8t32.5 26.5l107 131
q45 -6 85 -6q139 0 257 54.5t186.5 149t68.5 205.5q0 83 -40.5 159t-109 131t-163.5 87.5t-199 32.5zM512 153q-111 0 -205.5 41t-149.5 112t-55 154.5t55 154t149.5 111.5t205.5 41q34 0 66.5 -4t63 -11.5t59 -18.5t53.5 -25t47.5 -30.5t41 -35.5t33.5 -40.5t25 -44
t15.5 -47.5t5.5 -50q0 -119 -107 -207q-114 -94 -283 -100h-20zM717 537q-21 0 -38.5 -10.5t-28 -28t-10.5 -38.5q0 -32 22.5 -54.5t54.5 -22.5t54.5 22.5t22.5 54.5q0 45 -39 67q-18 10 -38 10zM307 537q-32 0 -54.5 -22.5t-22.5 -54.5t22.5 -54.5t54.5 -22.5q6 0 12.5 1
t12 3t11 5t10 6.5t9 7.5t8 9t6 10t4.5 11t3 12t1 12q0 7 -1 14t-3.5 13t-6 12t-7.5 11t-9 9t-11 7.5t-12 5.5t-13 3.5t-14 1.5zM307 537z" />
    <glyph glyph-name="uniE643" unicode="&#xe643;" 
d="M448 16v228h7q11 2 36.5 0.5t57.5 -2t71.5 -8.5t80 -18.5t81.5 -33t75.5 -50.5t63.5 -72t45 -97q0 107 -17 197t-45.5 153.5t-70 112.5t-86 79t-97.5 49.5t-101.5 27t-100.5 7.5v225l-393 -398z" />
    <glyph glyph-name="uniE644" unicode="&#xe644;" 
d="M512 192q-27 0 -45.5 -18.5t-18.5 -45.5t18.5 -45.5t45.5 -18.5t45.5 18.5t18.5 45.5t-18.5 45.5t-45.5 18.5zM512 704q-53 0 -90.5 -37.5t-37.5 -90.5q0 -31 16 -95t32 -113l16 -48q0 -27 18.5 -45.5t45.5 -18.5t45.5 18.5t18.5 45.5l64 256q0 53 -37.5 90.5t-90.5 37.5
zM512 896q-139 0 -257 -68.5t-186.5 -186.5t-68.5 -257t68.5 -257t186.5 -186.5t257 -68.5t257 68.5t186.5 186.5t68.5 257t-68.5 257t-186.5 186.5t-257 68.5zM512 0q-159 0 -271.5 112.5t-112.5 271.5t112.5 271.5t271.5 112.5t271.5 -112.5t112.5 -271.5t-112.5 -271.5
t-271.5 -112.5z" />
    <glyph glyph-name="uniE645" unicode="&#xe645;" 
d="M143 -128h123v265h-123v-265zM349 -128h123v389h-123v-389zM579 -128h124v489h-124v-489zM801 -128h124v630h-124v-630zM911 618l49 278l-277 -62l85 -81l-240 -252l-119 108l-345 -356l51 -49h-1l298 307l119 -108l289 301z" />
    <glyph glyph-name="uniE646" unicode="&#xe646;" 
d="M502 414zM380 68l-191 -35l38 188zM681 675l-69 -69l153 -153l69 69zM262 255l153 -153l316 317l-153 153z" />
    <glyph glyph-name="uniE647" unicode="&#xe647;" 
d="M191 656h58v-564h586v-63h-644v627zM279 405l34 -55q1 0 3 2h1q2 1 3 2q18 9 41 14t37.5 5.5t40.5 0.5q14 -1 28.5 -0.5t28 1t27 3.5t26 7.5t25 12.5t24 18.5t23 25.5t22 34t20.5 44t19 55l45 -13l-36 149l-111 -105l40 -12q-10 -33 -21.5 -58t-22.5 -41.5t-25.5 -28
t-25 -17t-28.5 -8t-28 -3t-30 -0.5q-31 1 -49 0t-46.5 -7.5t-53.5 -19.5q-1 0 -4 -2l-1 -1l-6 -3v0zM648 112h108v392l-108 -122v-270zM489 112h108v143h-108v-143zM335 112h109v204h-109v-204z" />
    <glyph glyph-name="uniE648" unicode="&#xe648;" 
d="M933 630q-13 13 -30 19.5t-34.5 6.5t-34.5 -6.5t-30 -19.5l-357 -346l-163 157q-26 26 -64 26t-64.5 -25.5t-26.5 -62.5t26 -63l227 -220q27 -26 65 -26q8 0 16 1.5t15.5 4t15 7t13.5 9.5l5 4l421 409q27 26 27 62.5t-27 62.5z" />
    <glyph glyph-name="uniE649" unicode="&#xe649;" 
d="M928 768h-832q-16 0 -30.5 -5t-26 -14t-20.5 -20.5t-14 -26t-5 -30.5v-576q0 -40 28 -68t68 -28h832q40 0 68 28t28 68v576q0 40 -28 68t-68 28zM960 96q0 -13 -9.5 -22.5t-22.5 -9.5h-832q-9 0 -16 4.5t-11.5 11.5t-4.5 16v288h896v-288zM960 576h-896v96q0 13 9.5 22.5
t22.5 9.5h832q13 0 22.5 -9.5t9.5 -22.5v-96zM128 256h64v-128h-64v128zM256 256h64v-128h-64v128zM384 256h64v-128h-64v128z" />
    <glyph glyph-name="uniE64A" unicode="&#xe64a;" 
d="M900 172q-7 22 -16.5 42.5t-20.5 39.5t-24.5 36t-28.5 32q-51 52 -123 82q-38 16 -73.5 23.5t-62.5 9.5v48v4q15 3 29 8t27 12.5t24.5 17t21 21t17 24.5t13 26.5t8 29t2.5 31.5q0 71 -50.5 121.5t-121.5 50.5q-47 0 -87 -23t-63 -62.5t-23 -86.5q0 -31 11 -60t29.5 -51.5
t45 -37.5t56.5 -21q-1 -1 -1 -2v-2v-48q-27 -2 -62.5 -9t-74.5 -24q-71 -30 -123 -82q-60 -61 -89 -150q-43 -9 -71.5 -44t-28.5 -80q0 -52 37 -89t89 -37t89.5 37t37.5 89q0 42 -25 75.5t-64 45.5q47 125 170 178q17 7 34.5 12.5t33 8.5t26.5 5t21 3v-205
q-41 -10 -68 -44.5t-27 -78.5q0 -52 37 -89t89 -37t89 37t37 89q0 44 -27 78.5t-68 44.5v205q58 -5 113 -28q62 -26 105 -71t67 -108q-39 -13 -63 -46t-24 -75q0 -52 37 -89t89 -37t89 37t37 89q0 30 -13 56.5t-36.5 44.5t-51.5 23zM231 48q0 -17 -8.5 -32t-23.5 -24t-33 -9
q-27 0 -46 19t-19 46q0 18 9 33t24 23.5t32 8.5q27 0 46 -19t19 -46zM410 659q0 30 14.5 55.5t40.5 40.5t56 15q46 0 78.5 -32.5t32.5 -78.5q0 -30 -15 -55.5t-40.5 -40.5t-55.5 -15q-46 0 -78.5 32.5t-32.5 78.5zM585 48q0 -27 -19 -46t-46 -19q-18 0 -33 9t-23.5 24
t-8.5 32q0 27 19 46t46 19t46 -19t19 -46zM875 -17q-27 0 -46 19t-19 46q0 18 8.5 33t23.5 23.5t33 8.5q27 0 46 -19t19 -46q0 -39 -34 -57q-15 -7 -31 -8z" />
    <glyph glyph-name="uniE64B" unicode="&#xe64b;" 
d="M510 763q13 0 18 -11l84 -177q8 -16 25 -19l193 -29q12 -2 16 -13q4 -10 -4 -18l-142 -144q-12 -12 -9 -30l33 -199v-4q0 -2 -0.5 -4t-1.5 -3.5t-2 -3.5l-4 -3q-6 -3 -12 -3q-5 0 -10 2l-168 92q-8 4 -16.5 4t-15.5 -4l-168 -92q-5 -2 -10 -2q-7 0 -12 3q-10 7 -8 18
l33 199q1 8 -1.5 16t-7.5 14l-142 144q-8 8 -4 18q4 11 16 13l193 29q17 3 25 19l84 177q5 11 18 11zM510 833q-17 0 -31.5 -9t-21.5 -24l-93 -195l-212 -32q-16 -2 -28.5 -12.5t-18.5 -26.5q-11 -33 14 -59l155 -158l-36 -218q-6 -36 25 -57q7 -5 15.5 -8t17.5 -3
q16 0 29 7l185 102l185 -102q4 -2 9 -3.5t10 -2.5t9 -1q19 0 34 11q31 21 25 57l-37 218l156 158q25 26 14 59q-4 11 -11 19t-16 13.5t-20 6.5l-212 32l-93 195q-3 7 -9 13.5t-12.5 11t-15 6.5t-16.5 2v0z" />
    <glyph glyph-name="uniE64C" unicode="&#xe64c;" 
d="M848 32h-640q-15 0 -30 7t-27 19q-11 11 -17 26.5t-6 32.5v459h32q0 -20 14 -34t34 -14h640q5 0 9.5 -0.5t9 -2t8.5 -3.5t7 -6q7 -7 10.5 -14.5t3.5 -16.5v-400q0 -23 -14 -37q-16 -16 -34 -16zM160 517v-400q0 -23 14 -37q16 -16 34 -16h640q4 0 11 7q5 5 5 14v400
q0 3 -1 4.5t-3.5 4t-9.5 2.5h-2h-640q-21 0 -48 21zM816 496h-608q-15 0 -30 7t-27 19q-11 11 -17 26t-6 31q0 32 23 55q22 22 57 22h256q7 0 11.5 -4.5t4.5 -11.5t-4.5 -11.5t-11.5 -4.5h-256q-22 0 -34 -12q-14 -14 -14 -33q0 -21 14 -35q16 -16 34 -16h608q7 0 11.5 -4.5
t4.5 -11.5t-4.5 -11.5t-11.5 -4.5zM800 549q-7 0 -11.5 4.5t-4.5 11.5v48q0 3 -1 4.5t-3.5 4t-9.5 2.5h-2h-80q-7 0 -11.5 4.5t-4.5 11.5t4.5 11.5t11.5 4.5h80q5 0 9.5 -0.5t9 -2t8.5 -3.5t7 -6q7 -7 10.5 -14.5t3.5 -16.5v-48q0 -7 -4.5 -11.5t-11.5 -4.5zM231 502l-14 29
l394 195q18 10 38 2q2 -1 4.5 -2t5 -2.5t4.5 -3.5l4 -4q2 -2 3.5 -4t3 -4.5t2.5 -5.5l76 -179l-30 -13l-75 180q-4 6 -10 8q-6 3 -12 0zM896 224h-208q-31 0 -57 26q-11 11 -17 26t-6 31q0 32 23 55q22 22 57 22h208v-160zM688 352q-5 0 -9.5 -0.5t-9 -2t-8.5 -3.5t-7 -6
q-7 -7 -10.5 -15t-3.5 -18q0 -9 3.5 -19t10.5 -16q7 -7 16 -11.5t18 -4.5h176v96h-176z" />
    <glyph glyph-name="uniE64D" unicode="&#xe64d;" 
d="M542 722h207l-140 -293l1 -2h32l131 273l129 -273h33l-139 295v32h-230v20q0 8 -2.5 15.5t-6 14t-9 11.5t-12 9t-14 6t-15.5 2q-24 0 -41 -17t-17 -41v-20h-223v-32h3l-140 -293v-2h33l130 273l129 -273h34l-139 295h195v-680l-245 -73v-33h570v33l-254 73v680zM415 384
v3v2h-326v-2v-3q0 -33 12.5 -63.5t34.5 -52t52.5 -34.5t63.5 -13q44 0 81.5 21.5t59.5 59.5t22 82zM609 389v-2v-3q0 -33 13 -63.5t35 -52t52 -34.5t63 -13q68 0 115.5 47.5t47.5 115.5v3v2h-326z" />
    <glyph glyph-name="uniE64E" unicode="&#xe64e;" 
d="M526 809q-97 0 -165 -68t-68 -164q0 -43 15 -82t41.5 -69.5t61.5 -50.5q-132 -31 -210.5 -128t-78.5 -234q0 -5 3 -10t8 -8t10 -3q9 0 15.5 6.5t6.5 14.5q0 96 45 171.5t126.5 117.5t185.5 43h2h2q96 0 164 68t68 164q0 104 -77 173q-66 59 -155 59zM527 388h-1h-2h-1
q-77 1 -132 56t-55 133t55.5 133.5t134 55.5t134 -55.5t55.5 -133.5q0 -51 -25 -94.5t-68.5 -69t-94.5 -25.5zM729 324q-8 4 -16.5 1t-12 -11t-0.5 -16.5t11 -12.5q29 -13 51.5 -26.5t47.5 -37t41.5 -51t27.5 -68t11 -89.5q0 -5 3 -10t8 -8t11 -3q9 0 15 6.5t6 14.5
q0 56 -13 103.5t-33 79t-49 58t-53.5 41.5t-55.5 29zM526 219q-21 0 -38.5 -10.5t-28 -28t-10.5 -38.5q0 -31 22.5 -53.5t54 -22.5t54 22.5t22.5 54t-22.5 54t-53.5 22.5zM526 109q-14 0 -24 9.5t-10 23.5t10 24t24 10q7 0 13 -2.5t10.5 -7t7 -11t2.5 -13.5q0 -5 -1.5 -10
t-4.5 -9.5t-7.5 -7.5t-9.5 -4.5t-10 -1.5z" />
    <glyph glyph-name="uniE64F" unicode="&#xe64f;" 
d="M959 762l-69 69l-378 -378l-378 378l-69 -69l378 -378l-378 -378l69 -69l378 378l378 -378l69 69l-378 378z" />
    <glyph glyph-name="uniE650" unicode="&#xe650;" 
d="M152 772h305q9 0 14.5 -6t7.5 -18.5t2.5 -20.5t0 -25.5t-0.5 -22.5v-169q0 -6 0.5 -21.5t0 -24t-1.5 -19.5t-5.5 -17.5t-11.5 -9.5q-5 -2 -16 -3t-21 -0.5t-23 1t-18 0.5h-162q-7 0 -19.5 -0.5t-20.5 -0.5t-19 1t-17.5 3.5t-11.5 7.5t-6 13v309q6 18 23 23zM194 703v-220
h220v223h-219q-1 0 -1 -3zM562 772h305q10 -3 16 -10t7 -17v-301q-1 -5 -2.5 -9t-4 -7.5t-6.5 -6.5t-8 -4q-9 -2 -22 -2.5t-30.5 0.5t-24.5 1h-157q-7 0 -24.5 -1t-31 -1t-21.5 3t-12.5 9.5t-6.5 19t-2 21.5t0.5 25.5t0.5 22.5v158v24q-3 58 11 70q6 4 13 5zM604 703v-220
h220v223h-219q-2 0 -1 -3zM294 638q15 3 28 -2t20 -16t8 -25q0 -27 -22 -40t-45 -2q-16 9 -21.5 28t3.5 36.5t29 20.5zM704 638q39 8 51 -26q10 -30 -10 -51q-16 -16 -41 -12q-22 4 -30.5 24t0 40.5t30.5 24.5zM455 0h-302q-9 3 -15.5 9t-8.5 16v308q6 19 20 23q9 2 22 2.5
t30.5 -0.5t24.5 -1h156q7 0 24.5 1t31 0.5t22.5 -2.5q8 -3 13 -9.5t6.5 -18.5t2 -21t0 -25.5t-0.5 -23.5v-162v-63q-4 -30 -26 -33zM194 287v-220h220v223h-219q-1 0 -1 -3zM890 329v-86q-1 -7 -0.5 -46t-0.5 -47h-218v50q-5 2 -33 1.5t-34 -0.5q-2 -17 -1.5 -99.5
t0.5 -101.5h-40q-10 2 -16 8.5t-8 18.5t-2 21.5t0.5 27t0.5 24.5v158q0 7 -1 25.5t-0.5 32t2.5 21.5q1 4 4 7.5t5.5 5.5t7.5 3.5t8.5 2t10 1t9.5 0.5h12h11h148v-136h69v45v46q0 26 1 45q10 0 19 0.5t17.5 -1t14.5 -4.5t10 -8.5t4 -14.5zM300 224q25 2 40.5 -17.5t6.5 -45.5
q-9 -23 -33.5 -27t-42.5 12.5t-10.5 45t39.5 32.5zM745 0h-74v41q0 33 1 39h73v-80zM890 80v-52q-4 -21 -24 -28h-52q0 8 -0.5 41t1.5 39h75z" />
    <glyph glyph-name="uniE651" unicode="&#xe651;" 
d="M896 -128h-768q-53 0 -90.5 37.5t-37.5 90.5v768q0 53 37.5 90.5t90.5 37.5h768q53 0 90.5 -37.5t37.5 -90.5v-768q0 -53 -37.5 -90.5t-90.5 -37.5zM947 742q0 32 -22.5 54.5t-54.5 22.5h-716q-21 0 -39 -10t-28 -28t-10 -39v-716q0 -21 10 -39t28 -28t39 -10h716
q32 0 54.5 22.5t22.5 54.5v716z" />
    <glyph glyph-name="uniE652" unicode="&#xe652;" 
d="M896 -128h-768q-53 0 -90.5 37.5t-37.5 90.5v768q0 53 37.5 90.5t90.5 37.5h768q53 0 90.5 -37.5t37.5 -90.5v-768q0 -53 -37.5 -90.5t-90.5 -37.5zM947 742q0 32 -22.5 54.5t-54.5 22.5h-716q-21 0 -39 -10t-28 -28t-10 -39v-716q0 -21 10 -39t28 -28t39 -10h716
q32 0 54.5 22.5t22.5 54.5v716zM487 210q-3 -11 -9 -17l-18 -18q-12 -11 -28 -11t-27 11l-217 217q-7 8 -10 18t0 19.5t10 17.5l18 18q11 11 27 11t27 -11l169 -169l339 340q12 11 27.5 11t27.5 -11l18 -18q11 -11 11 -27t-11 -28z" />
    <glyph glyph-name="uniE653" unicode="&#xe653;" 
d="M505 227l-295 296h589z" />
    <glyph glyph-name="uniE654" unicode="&#xe654;" 
d="M944 787h-42q-17 0 -31 -8t-22.5 -22.5t-8.5 -31.5v-108v-59v-83v-188q0 -34 -17 -62.5t-45.5 -45.5t-62.5 -17h-500q-17 0 -33.5 4.5t-30 12.5t-25 19.5t-19.5 25.5t-12.5 30t-4.5 33v313q0 52 36.5 88.5t88.5 36.5h417h20q3 0 6 -1t5 -2t4 -3t3.5 -4.5t2 -5t0.5 -5.5
v-21q0 -5 -2.5 -10t-7.5 -8t-11 -3h-20h-417q-26 0 -44.5 -18t-18.5 -44v-313q0 -26 18.5 -44t44.5 -18h500q26 0 44 18t18 44v188v83v167q0 52 37 88.5t88 36.5h42q6 0 10.5 -3t7.5 -7.5t3 -10.5v-21q0 -8 -6 -14.5t-15 -6.5zM652 329h-375q-8 0 -14.5 6t-6.5 15v21
q0 8 6.5 14t14.5 6h375q9 0 15 -6t6 -14v-21q0 -4 -1.5 -8t-4.5 -7t-6.5 -4.5t-8.5 -1.5zM652 496h-375q-8 0 -14.5 6t-6.5 14v21q0 9 6.5 15t14.5 6h375q9 0 15 -6t6 -15v-21q0 -8 -6 -14t-15 -6zM194 100q26 0 44 -18.5t18 -44.5q0 -17 -8 -31t-22.5 -22.5t-31.5 -8.5
q-26 0 -44.5 18t-18.5 44t18.5 44.5t44.5 18.5zM788 106q30 0 51.5 -21.5t21.5 -51.5t-21.5 -51.5t-51.5 -21.5t-51.5 21.5t-21.5 51.5q0 12 3.5 23t10.5 20t16 16t20 10.5t23 3.5z" />
    <glyph glyph-name="uniE655" unicode="&#xe655;" 
d="M744 798q-45 0 -98 -22t-85.5 -44t-62.5 -47l-22 21q-21 22 -28 27.5t-30 22t-39.5 23t-43.5 13t-55 6.5q-71 0 -132.5 -35.5t-96.5 -96.5t-35 -133q0 -32 5.5 -59t18.5 -51t23 -38t29 -38l330 -334q6 -5 11.5 -10t11 -9t11.5 -7.5t11.5 -6t11 -4.5t11.5 -3l10 -2
q6 -1 12 -1q47 0 90 43l328 332q78 85 78 188q0 109 -77.5 187t-186.5 78zM882 391l-327 -331q-24 -24 -43 -24q-20 1 -43 24l-326 329q-34 43 -47.5 71.5t-13.5 72.5q0 40 15.5 77t42 63.5t63.5 42.5t77 16q33 0 67 -16t55.5 -34t46 -40.5t31.5 -27.5q11 -8 22.5 -7
t23.5 12q15 13 31.5 26t49.5 35.5t69.5 37t67.5 14.5q82 0 140 -58.5t58 -140.5q0 -77 -60 -142z" />
    <glyph glyph-name="uniE656" unicode="&#xe656;" 
d="M362 868h-245q-37 0 -63 -26t-26 -63v-245q0 -37 26 -63t63 -26h245q24 0 44.5 12t32.5 32.5t12 44.5v245q0 37 -26 63t-63 26zM362 578q0 -7 -2 -13.5t-6.5 -12t-10 -10t-12 -6.5t-14.5 -2h-155q-13 0 -23 6t-16 16t-6 22v156q0 13 6 23t16 16t23 6h155q5 0 9.5 -1
t8.5 -2.5t7.5 -4t6.5 -5.5t5.5 -6.5t4 -7.5t2.5 -8.5t1 -9.5v-156zM362 356h-245q-37 0 -63 -26.5t-26 -62.5v-246q0 -36 26 -62.5t63 -26.5h245q24 0 44.5 12t32.5 32.5t12 44.5v246q0 24 -12 44.5t-32.5 32.5t-44.5 12zM362 66q0 -18 -13 -31.5t-32 -13.5h-155
q-19 0 -32 13.5t-13 31.5v156q0 12 6 22.5t16 16.5t23 6h155q10 0 18 -4t14 -9.5t9.5 -14t3.5 -17.5v-156zM607 445h245q37 0 63 26t26 63v245q0 7 -1 14.5t-3 14t-5.5 12.5t-7.5 11.5t-9 10.5t-10.5 9t-11.5 7t-12.5 5.5t-13.5 3.5t-15 1h-245q-37 0 -63 -26t-26 -63v-245
q0 -37 26 -63t63 -26zM607 734q0 10 3.5 18t9.5 14t14.5 9.5t17.5 3.5h156q12 0 22 -6t16 -16t6 -23v-156q0 -12 -6 -22t-16 -16t-22 -6h-156q-12 0 -22.5 6t-16.5 16t-6 22v156zM1011 -52l-76 76l-6 5q35 52 35 115q0 57 -28.5 106t-77.5 77.5t-106 28.5q-88 0 -150 -62
t-62 -150t62 -150t150 -62q63 0 115 35q3 -4 5 -6l76 -76q8 -9 19.5 -12t23 0t20.5 12q6 6 9.5 14.5t3.5 17t-3.5 17t-9.5 14.5zM752 21q-51 0 -87 36t-36 87q0 17 4.5 32.5t12.5 29t19.5 25t25 19.5t29 12.5t32.5 4.5q51 0 87 -36t36 -87q0 -25 -10 -47.5t-26.5 -39
t-39 -26.5t-47.5 -10z" />
    <glyph glyph-name="uniE657" unicode="&#xe657;" 
d="M102 383zM0 383q0 55 47 86q26 16 55 16q43 0 73 -30t30 -72.5t-30 -72.5t-72.5 -30t-72.5 30t-30 73zM922 383zM819 383q0 14 4 27t10.5 24.5t16 20.5t20.5 16t24.5 10.5t27.5 3.5q42 0 72 -30t30 -72q0 -14 -3.5 -27.5t-10.5 -24.5t-16 -20.5t-20.5 -16t-24.5 -10.5
t-27 -4q-43 0 -73 30t-30 73zM512 383zM410 382.5q0 42.5 30 72.5t72 30t72 -30t30 -72.5t-30 -72.5t-72 -30t-72 30t-30 72.5z" />
    <glyph glyph-name="uniE658" unicode="&#xe658;" 
d="M381 122q-15 0 -27 -7t-19 -19t-7 -26.5t7 -26.5t19 -19t27 -7q21 0 36.5 15.5t15.5 37t-15.5 37t-36.5 15.5v0zM748 122q-22 0 -37.5 -15.5t-15.5 -37t15.5 -37t37.5 -15.5q14 0 26 7t19 19t7 26q0 34 -31 48q-11 5 -21 5v0zM800 148h-426q-19 0 -35.5 9t-27 24.5
t-13.5 34.5l-44 313l-25 146q-2 10 -9 17t-16 7h-33q-8 0 -14 3.5t-9.5 9.5t-3.5 13t3.5 13t9.5 9.5t14 3.5h33q14 0 27.5 -5.5t23.5 -14.5t17 -21.5t8 -26.5l26 -146l44 -314q1 -9 8 -16t16 -7h426q11 0 18.5 -7.5t7.5 -18.5q0 -5 -2 -10t-5.5 -8.5t-8.5 -5.5t-10 -2z
M407 253q-11 0 -18.5 7t-7.5 17q-1 4 0 8.5t3.5 7.5t5.5 6t6.5 4.5t8.5 1.5l355 26q10 1 17.5 7.5t8.5 14.5l41 237q2 15 -7 24q-5 6 -12 6h-454q-11 0 -18.5 7.5t-7.5 18.5t7.5 18.5t18.5 7.5h454q15 0 28.5 -6t23.5 -17q24 -27 19 -67l-41 -236q-1 -9 -4.5 -18t-9 -16
t-12 -13t-14.5 -10.5t-17 -7t-19 -2.5l-353 -26h-1h-1zM407 253z" />
    <glyph glyph-name="uniE659" unicode="&#xe659;" 
d="M703 845q12 -1 17 -1q20 0 39.5 -5t36.5 -15t32 -24l100 -100q45 -45 45 -109q0 -20 -5.5 -39.5t-15.5 -37t-24 -31.5l-3 -3q-19 -19 -45 -31l-22 -10l-24 -3h-4q-2 0 -3.5 -0.5t-3.5 -0.5h-3h-3q-64 0 -109 45l-10 11l-40 40l-36 -44q-10 -12 -22.5 -22t-26 -16.5
t-28.5 -10t-31 -3.5h-4q-66 0 -108 52l-36 44l-40 -40l-10 -11q-22 -22 -50 -33.5t-59 -11.5q-7 0 -17 1l-23 3l-23 10q-26 12 -45 31l-3 3q-45 45 -45 108.5t45 108.5l100 100q45 44 108 44q5 0 17 1h382zM704 896h-384q-11 -1 -16 -1q-85 0 -144 -59l-100 -100
q-60 -60 -60 -144.5t60 -144.5l3 -3q13 -13 28.5 -23.5t31.5 -18.5v-448q0 -34 24 -58t58 -24h615q16 0 31.5 6.5t26 17.5t17 26t6.5 32v449q34 15 60 41l3 3q60 60 60 144.5t-60 144.5l-100 100q-15 15 -32 26t-35.5 18.5t-37.5 11t-39 3.5zM510 384h4q44 0 82.5 19
t65.5 51l10 -10q60 -60 145 -60q5 0 11 0.5t12 1.5v-388q0 -27 -19 -45.5t-45 -18.5h-527q-27 0 -45.5 18.5t-18.5 45.5v387q3 0 7 -0.5t8 -0.5h7q85 0 145 60l10 10q27 -32 65.5 -51t82.5 -19z" />
    <glyph glyph-name="uniE65A" unicode="&#xe65a;" 
d="M512 0h-85l-235 -128v235q-90 63 -141 150.5t-51 190.5q0 91 40.5 174t109 143t163.5 95.5t199 35.5q70 0 136 -16t122.5 -45t103.5 -70.5t80 -90.5t51.5 -107t18.5 -119q0 -165 -122 -290q-121 -125 -304 -152q-43 -6 -86 -6zM512 832q-52 0 -102.5 -10t-94.5 -29
t-83 -45.5t-69.5 -59.5t-53 -71t-34 -81t-11.5 -88q0 -96 52 -181.5t140 -138.5v-142l171 78h85q73 0 141.5 19.5t123.5 55t96.5 82.5t64 105.5t22.5 121.5q0 104 -60 192.5t-163 140t-225 51.5zM768 384q-6 0 -11.5 1t-10.5 3t-10 5t-9 6.5t-8 7.5t-6.5 9t-4.5 10t-3 10.5
t-1 11.5q0 13 5 25t13.5 20.5t20.5 13.5t25 5q10 0 20 -3t18 -9t14 -14t9 -18t3 -20q0 -26 -18.5 -45t-45.5 -19zM512 384q-13 0 -25 5t-20.5 13.5t-13.5 20.5t-5 25q0 27 18.5 45.5t45.5 18.5q6 0 11.5 -1t11 -3t10 -4.5t8.5 -6.5l8 -8q4 -4 6.5 -8.5t4.5 -10t3 -11
t1 -11.5q0 -13 -5 -25t-13.5 -20.5t-20.5 -13.5t-25 -5zM256 384q-27 0 -45.5 19t-18.5 45q0 10 3 20t9 18t14 14t18 9t20 3t20 -3t18 -9t14 -14t9 -18t3 -20q0 -27 -18.5 -45.5t-45.5 -18.5z" />
    <glyph glyph-name="uniE65B" unicode="&#xe65b;" 
d="M358 169l369 369q14 13 14 32.5t-14 32.5q-8 9 -20 12t-24 0t-21 -12l-369 -369q-5 -6 -8.5 -12.5t-4.5 -13.5t0 -14t4.5 -13.5t8.5 -11.5q9 -9 21 -12t23.5 0t20.5 12zM480 233q4 -6 6 -12.5t2 -11.5q0 -17 -12 -29l-194 -194q-12 -12 -29 -12t-29 12l-110 110
q-3 3 -5 6.5t-3.5 6.5t-2 6t-1 5.5t-0.5 4.5q0 17 12 29l194 194q3 3 6.5 5t6 3.5t6 2t5.5 1t5 0.5q4 0 9 -1t10 -4l59 59q-24 19 -54 25t-59.5 -2.5t-51.5 -30.5l-194 -194q-36 -36 -36 -87t36 -87l110 -110q36 -36 87 -36t87 36l194 194q34 34 35.5 83.5t-31.5 85.5z
M968 730l-110 110q-24 23 -55.5 31.5t-63.5 0t-55 -31.5l-194 -194q-22 -22 -30.5 -51.5t-2.5 -59.5t25 -54l59 59q-3 5 -4 10t-1 9q0 17 12 29l194 194q12 12 29 12t29 -12l110 -110q12 -12 12 -29t-12 -29l-194 -194q-12 -12 -29 -12q-5 0 -11.5 2t-12.5 6l-58 -58
q36 -33 85.5 -31.5t83.5 35.5l194 194q36 36 36 87t-36 87z" />
    <glyph glyph-name="uniE65C" unicode="&#xe65c;" 
d="M815 551v-325q0 -87 3 -172h-62v50h-488v-50h-62q1 21 1.5 42t0.5 42.5t0.5 43.5t0.5 44v325q0 40 -1 80.5t-2 82.5h612l-2 -54v-54q-1 -27 -1 -55zM756 158v503h-488v-503h488zM552 536q0 65 -3 98h62q-3 -32 -3 -98q60 0 104 3v-56q-45 3 -104 3v-222q1 -15 -2.5 -26
t-11.5 -19t-20 -12q-37 -14 -84 -17q0 9 -2.5 19.5t-7 21.5t-11.5 24q27 -1 44 -0.5t24 3.5q4 2 6.5 4.5t4.5 6.5t3 9.5t1 12.5v168q-39 -74 -87.5 -128.5t-116.5 -107.5q-18 29 -47 47q19 10 36.5 21.5t33 24t29.5 26t26 27.5q49 58 79 117h-80h-17q-8 0 -17 -0.5t-19 -0.5
t-20.5 -0.5t-21.5 -1.5v56q25 -1 49.5 -2t48.5 -1h124z" />
    <glyph glyph-name="uniE65D" unicode="&#xe65d;" 
d="M419 1q-14 0 -23 10q-16 19 -37 33.5t-40 23.5t-40 15.5t-36.5 10t-30.5 5t-20.5 2t-8.5 0.5q-13 0 -22 8.5t-9.5 21.5t8.5 21.5t22 9.5q2 0 6.5 -0.5t13.5 -1t20.5 -2t25.5 -4t29.5 -6.5t32 -9.5t34 -14t34 -19t33.5 -24t31 -29.5q9 -9 8.5 -22t-10.5 -21q-4 -4 -9.5 -6
t-11.5 -2zM627 1q-12 0 -21 8q-9 9 -9.5 21.5t7.5 21.5q29 31 66.5 53.5t68 33t61.5 16t45 6.5t20 1q12 0 21 -9t9 -21.5t-9 -21.5t-22 -9v0q-6 0 -15.5 -0.5t-36.5 -5.5t-52 -13.5t-56 -27t-54 -43.5q-9 -10 -23 -10zM572 156h-98q-2 0 -4.5 0.5t-4.5 0.5q-31 4 -60.5 13.5
t-56.5 24t-51 34t-45 44t-38 53.5q-50 83 -60.5 182t22.5 176q8 18 28 19h9q89 0 165 -33q54 98 123 147q2 2 4 3l4 2q7 3 15 2.5t15 -4.5l4 -4q68 -49 122 -148q19 9 39.5 15.5t41.5 10.5t43 6.5t44 2.5h10q20 -1 28 -19q33 -78 22.5 -176.5t-60.5 -181.5
q-43 -72 -108 -115.5t-143 -53.5q-5 -1 -10 -1zM480 217h87h1h1q135 15 210 140q39 65 50.5 143.5t-8.5 141.5q-85 -3 -154 -41q-4 -2 -8 -3t-8.5 -0.5t-8.5 1.5q-6 2 -10.5 6t-7.5 10q-16 31 -32.5 57t-34 47t-36.5 36q-56 -47 -102 -139q-2 -3 -4.5 -6t-6 -5.5t-8 -3.5
t-8.5 -1.5t-8 0.5t-8 3q-33 18 -71 27.5t-79 11.5q-20 -63 -9 -141.5t50 -143.5q75 -125 211 -140h2zM523 -25q-13 0 -22 9t-9 21v181q0 13 9 22t22 9t22 -9t9 -22v-181q0 -12 -9 -21t-22 -9zM523 -25z" />
    <glyph glyph-name="uniE65E" unicode="&#xe65e;" 
d="M836 638h-28q11 19 15.5 36t3.5 34q-4 39 -42 64q-20 13 -44.5 16t-52.5 -4q-45 -11 -94 -47t-84 -83q-10 14 -21.5 26.5t-24 24.5t-26 22.5t-27 19.5t-27 16t-27 12.5t-26.5 8.5q-18 5 -35.5 5t-33 -4t-28.5 -13q-38 -25 -41 -64q-3 -33 18 -70h-28q-32 0 -55 -23
t-23 -55v-100q0 -26 15 -46.5t40 -28.5q-5 -13 -5 -26v-302q0 -21 10.5 -39t28.5 -28.5t39 -10.5h553q32 0 55 23t23 55v302q0 4 -0.5 8.5t-1.5 9t-2 8.5q24 8 39 28.5t15 46.5v100q0 8 -1.5 16t-4.5 14.5t-7 13t-9.5 12t-11.5 9.5t-13 7t-15 4.5t-16 1.5zM786 34h-249v347
h249q6 0 11.5 -3t8.5 -8t3 -11v-302q0 -9 -7 -16t-16 -7zM568 638q20 23 43 42t46.5 32t44.5 18q8 2 15.5 3t14 0.5t12.5 -2.5t10 -5q16 -11 17 -23q2 -15 -9.5 -33.5t-23.5 -31.5h-170zM859 560v-100q0 -10 -6.5 -16.5t-16.5 -6.5h-299v146h299q6 0 11.5 -3t8.5 -8.5
t3 -11.5zM482 381v-347h-249q-9 0 -15.5 7t-6.5 16v302q0 9 6.5 15.5t15.5 6.5h249zM248 703q0 3 1.5 6t5 8t10.5 9q19 13 53 4q15 -4 32.5 -12.5t34.5 -20t34 -27t32 -32.5h-170q-12 12 -23 31t-10 34zM160 560q0 9 7 16t16 7h299v-146h-299q-9 0 -16 6.5t-7 16.5v100z" />
    <glyph glyph-name="uniE65F" unicode="&#xe65f;" 
d="M511 -62q-72 0 -140.5 22.5t-123.5 63.5t-96 96t-63.5 123t-22.5 141q0 91 35 174t95 142.5t142.5 95t173.5 35.5q46 0 90.5 -9t84 -26t75.5 -41.5t66 -54.5t54.5 -66t41.5 -75.5t26 -84t9 -90.5q0 -91 -35.5 -173.5t-95 -142.5t-142.5 -95t-174 -35zM712 581
q0 5 -0.5 9.5t-2 9t-3.5 9.5q-7 13 -18 22q-2 2 -4 3.5t-4.5 3t-4.5 2.5t-4.5 2.5t-5 2.5t-4.5 2q-16 5 -33 5h-233q-9 0 -17 -1.5t-16 -3.5q-16 -6 -27 -16q-12 -9 -18 -22q-2 -4 -3 -7t-2 -6.5t-1.5 -7t-0.5 -7.5v-394q0 -15 6.5 -27.5t18.5 -22.5q11 -9 26.5 -15t33.5 -6
h233q17 0 33 6q4 1 7.5 3t7 3.5t6.5 4t6 4.5q11 10 18 23q6 12 6 27v394zM363 553h296v-337h-296v337zM553 593h-83q-2 0 -4 0.5t-4 1.5q-3 3 -3 8q0 2 1 4t2.5 3t3.5 2t4 1h83q4 0 7 -2.5t3 -7.5t-3 -8q-3 -2 -7 -2zM511 199q14 0 24 -9q3 -2 5 -4l2 -6q2 -2 2.5 -5t0.5 -6
q0 -5 -1 -8.5t-3 -7t-6 -6.5q-10 -9 -24 -9q-7 0 -13 2.5t-11 7t-7.5 9.5t-2.5 12q0 13 10 21q10 9 24 9z" />
    <glyph glyph-name="uniE660" unicode="&#xe660;" 
d="M517 829q-61 0 -118.5 -15.5t-106.5 -44t-90 -69.5t-70 -90t-44.5 -106.5t-15.5 -118.5q0 -170 112 -297q109 -123 271 -145q31 -4 62 -4q91 0 173.5 35t142 95t94.5 143t35 173.5t-35 173t-94.5 141.5t-142 94t-173.5 35zM306 651l52 36l22 -6l87 -127l-2 -20l-51 -36
q-5 -4 -8 -8t-3.5 -10t0 -10.5t3 -12.5t4.5 -13.5t6 -16t7 -18.5q42 -73 72 -100q6 -4 16 -13t14 -12t11.5 -8.5t11.5 -7t10 -3t11 0t10 4.5l49 34l19 -2l91 -124l-2 -21l-50 -38q-156 -47 -306 166q-47 62 -73 120t-31.5 97.5t-1 73t13.5 50t18 25.5z" />
    <glyph glyph-name="uniE661" unicode="&#xe661;" 
d="M571 717q-108 0 -194 -64.5t-116 -166.5l-165 -94l165 -95q30 -101 116 -165.5t194 -64.5q89 0 164 43.5t118.5 118t43.5 163t-43.5 163.5t-118.5 118.5t-164 43.5zM471 346q-20 0 -35 14.5t-15 35.5q0 13 7 24.5t18.5 18.5t24.5 7q11 0 20 -4t16 -10.5t10.5 -16
t3.5 -19.5q0 -6 -1 -11.5t-3.5 -10.5t-6 -9.5t-8 -8t-9 -6t-10.5 -3.5t-12 -1zM671.5 346q-20.5 0 -35 14.5t-14.5 35.5q0 13 6.5 24.5t18 18.5t25.5 7q20 0 35 -14.5t15 -35.5t-15 -35.5t-35.5 -14.5z" />
    <glyph glyph-name="uniE662" unicode="&#xe662;" 
d="M1013 -62l-247 246q0 1 -3 2q-1 1 -2 1q102 121 102 278q0 70 -22 136t-62 119t-93 92.5t-118.5 61.5t-136 22t-136.5 -22t-119 -61.5t-92.5 -92.5t-61.5 -119t-22 -136q0 -117 58 -216.5t157 -157t216 -57.5q157 0 277 100q1 0 2 -2t2 -3l246 -246q11 -11 27 -11
t27.5 11.5t11.5 27.5t-11 27zM431.5 114q-95.5 0 -176 47t-127.5 128t-47 176t47 175.5t127.5 127.5t175.5 47q72 0 136.5 -27.5t111.5 -74.5t75 -112t28 -136q0 -95 -47 -176t-127.5 -128t-176 -47z" />
    <glyph glyph-name="uniE663" unicode="&#xe663;" 
d="M259 282q-68 69 -92 161.5t0 185t92 161.5q50 51 114.5 78.5t135.5 27.5q35 0 69 -7t66 -20.5t61 -33t54 -45.5q40 -41 65.5 -92.5t33 -106.5t0 -110t-33 -106.5t-65.5 -92.5l-46 45q85 86 85 209t-85 209q-41 42 -94 64.5t-110 22.5q-120 0 -204 -87q-85 -86 -85 -209
t85 -209zM509 -128l-188 301l54 34l134 -214l133 214l54 -34zM512 365q-72 0 -123.5 51.5t-51.5 123.5q0 47 23.5 87.5t64 64t87.5 23.5t87.5 -23.5t64 -64t23.5 -87.5q0 -36 -14 -68t-37.5 -55.5t-56 -37.5t-67.5 -14zM512 656q-48 0 -82 -34t-34 -82t34 -82.5t82 -34.5
t82 34.5t34 82.5t-34 82t-82 34z" />
    <glyph glyph-name="uniE664" unicode="&#xe664;" 
d="M632 720q30 0 59.5 -6t55.5 -16.5t50 -26.5t44 -35.5t36.5 -42.5t27.5 -48.5t17 -54t6 -58.5q0 -106 -70.5 -186.5t-178.5 -97.5l-42 -6l-11 -40l-5 -19l-87 52l-16 9h-17h-109q-122 0 -209 84.5t-87 203.5t87 203.5t209 84.5h240zM632 784h-240q-30 0 -58.5 -4.5
t-55 -13.5t-51.5 -21.5t-47.5 -28.5t-42 -35t-36 -41t-29.5 -46.5t-22 -50.5t-13.5 -54t-4.5 -57q0 -95 48 -176t131 -128.5t181 -47.5h109l160 -96l27 101q86 13 155 62t109 124t40 161q0 96 -48 177t-131 128t-181 47z" />
    <glyph glyph-name="uniE665" unicode="&#xe665;" 
d="M512 105l512 558h-1024z" />
    <glyph glyph-name="uniE666" unicode="&#xe666;" 
d="M325 34zM882 34zM236 19zM960 19zM64 107zM958 107zM81 18zM1023 18zM18 31zM245 654h536v-60h-536v60zM245 534h536v-59h-536v59zM185 713h63h509h84v-298h-656v298zM66 -7q0 -22 17.5 -38.5t41.5 -16.5h775q24 0 42 16.5t18 38.5v422h-60v358v59h-775v-59v-358h-59
v-422zM1007 31z" />
    <glyph glyph-name="uniE667" unicode="&#xe667;" 
d="M529 809v52h-34v-52q-68 -2 -132 -21.5t-118.5 -53t-100 -80t-77.5 -101.5t-49.5 -120t-17.5 -132q0 -14 1 -27.5t2 -27.5l34 1q1 28 15.5 51.5t38.5 37t52 13.5q12 0 24 -3t22.5 -8t19.5 -12.5t16.5 -16.5t12.5 -19.5t8 -22.5t3 -24h34q0 44 31 75t75 31q21 0 40.5 -8
t33.5 -22t23 -33.5t9 -40.5v-264q0 -32 22 -54t53.5 -22t53.5 22.5t22 53.5h-34q0 -17 -12.5 -29.5t-29.5 -12.5t-29 12.5t-12 29.5v262q0 44 31 75t75 31q13 0 24.5 -3t22 -8t20 -12.5t16.5 -16.5t12.5 -19.5t8 -22.5t2.5 -24h34q0 44 31.5 75t74.5 31t73.5 -29.5
t32.5 -71.5l34 -1q3 27 3 54q0 101 -39 193.5t-105 160.5t-158 109.5t-193 44.5zM881 383q-26 0 -50 -9t-42.5 -25.5t-30.5 -38.5q-18 33 -51 53t-72 20t-72 -20t-51 -53q-18 33 -51 53t-72 20t-72 -20t-51 -53q-18 33 -51 53t-72 20q-66 0 -108 -50q4 61 23.5 118.5
t51.5 106t75.5 89.5t94.5 69t110.5 44t121.5 16q124 0 231 -59t172 -160.5t74 -223.5q-42 50 -108 50z" />
    <glyph glyph-name="uniE668" unicode="&#xe668;" 
d="M512 805q-114 0 -211 -56.5t-153.5 -153.5t-56.5 -211t56.5 -211t153.5 -153.5t211 -56.5q69 0 133 21.5t115.5 60.5t90.5 90.5t60.5 115.5t21.5 133q0 57 -15.5 111.5t-42.5 100.5t-66 85t-85 66t-100.5 42.5t-111.5 15.5zM512 -8q-80 0 -152.5 31t-125 83.5t-83.5 125
t-31 152.5q0 106 52.5 196.5t143 143t196.5 52.5t196.5 -52.5t143 -143t52.5 -196.5t-52.5 -196.5t-143 -143t-196.5 -52.5zM773 384q0 15 -12 32q-30 44 -79 64.5t-97 24.5q-4 4 -13 12t-19.5 16.5t-20.5 16.5t-16 13l-7 5q-30 22 -33 0v-79q-39 -21 -61 -39t-31.5 -30.5
t-15.5 -15.5q-9 -6 -18.5 -1.5t-28.5 24.5t-26 27q-38 32 -43 9q-1 -4 -1 -9q2 -17 23 -62q2 -9 -2 -20q-19 -42 -21 -58q-2 -19 13 -18q12 2 31 18q6 7 14.5 15t14 14t12.5 12t11 8.5t10.5 4t10.5 -3.5q5 -3 10 -9t11.5 -13t16 -16t28 -21.5t42.5 -25.5v-79l3 -9q8 -9 30 9
q62 48 76 63q48 4 97 24.5t79 64.5q2 2 3 4t2.5 4.5t2.5 4.5t1 5l2 4v6q1 2 1 4v0v0zM683 356q-4 0 -7.5 1t-6.5 3t-5.5 4.5t-4 5.5t-2.5 6.5t-1 7.5q0 3 0.5 6.5t2 6t3.5 5t4 4.5t5 3l6 2q3 1 6 1q11 0 19 -8t8 -20t-8 -20t-19 -8zM683 356z" />
    <glyph glyph-name="uniE669" unicode="&#xe669;" 
d="M511 864q97 0 185.5 -38t152.5 -102t102 -152.5t38 -186.5q0 -65 -17 -127t-48 -114.5t-75 -96.5t-96.5 -75t-114.5 -48t-127 -17q-180 0 -315 117q-129 113 -157 282q-7 40 -7 79q0 78 24 151.5t68.5 132t103 103t132 68.5t151.5 24zM194 448v-84q15 10 36 18t45 7
q21 -2 35 -7t26 -11q2 0 4 -1l4 -2l4 -2q2 -1 4 -1.5t4 -1.5t4 -1q12 -4 29 -4q16 0 32.5 5.5t33.5 13t35 13.5t35.5 6t26.5 -8q2 -2 4 -3.5t4 -2.5l2 -4q2 -1 3.5 -3t3.5 -4q7 -8 15.5 -16t25.5 -8t31.5 9t29.5 19q8 5 16 9.5t16 8.5q16 8 37 8q20 -2 27 -11q4 -5 6.5 -10
t4 -10.5t4.5 -10.5l4 -9q5 -9 22 -9h19v107h-633zM194 184v-106h633v106h-633zM734 341q-15 -2 -28.5 -9.5t-27.5 -16.5q-8 -5 -16 -9t-17 -7.5t-19 -5t-21 -1.5q-23 0 -32.5 6.5t-15.5 14.5l-14 14q-2 2 -4.5 3t-6 2t-8 1.5t-9.5 0.5q-6 0 -12.5 -1.5t-13.5 -4t-15 -6
t-16 -6.5q-16 -7 -35 -13q-10 -3 -20.5 -4t-22.5 -1q-23 0 -37 6q-6 2 -12 5.5t-11 6.5l-10 8q-5 3 -11 6q-11 6 -29 6q-26 0 -45.5 -11.5t-30.5 -21.5v-66h633v57h-17q-15 0 -24 8l-8 8q-4 4 -8 9q-7 9 -14 16q-4 3 -9.5 4.5t-12.5 1.5zM827 501v53q-6 36 -34 65
q-14 15 -31.5 27.5t-38.5 23.5q-42 22 -97 34q-27 5 -56 8t-59 3q-60 0 -114.5 -11.5t-97.5 -33t-71 -51.5q-14 -15 -22.5 -31t-11.5 -34v-53h633zM374 607q11 0 18.5 8t7.5 18.5t-7.5 18.5t-18.5 8t-18.5 -8t-7.5 -18q0 -4 1 -7.5t2.5 -6.5t4.5 -5q7 -8 18 -8zM532 660
q12 0 19 7.5t7 18.5t-7 18.5t-19 7.5q-11 0 -18 -7.5t-7 -18.5t7 -18.5t18 -7.5zM638 607q4 0 7.5 1t6 2.5t5.5 4.5q8 8 8 18.5t-8 18.5t-19 8t-18.5 -8t-7.5 -18q0 -6 2 -10.5t6 -8.5q1 -2 3 -3t3.5 -2t3.5 -2h4q2 -1 4 -1z" />
    <glyph glyph-name="uniE66A" unicode="&#xe66a;" 
d="M393 176q-75 0 -129 6q-44 6 -80 17t-59.5 26t-39.5 33.5t-23 37t-8 37.5q0 30 8.5 58.5t21 49t29.5 39.5t31.5 30.5t30.5 21.5t22 13t11 5q23 14 44 14q9 0 14 -3q14 -5 42.5 -29.5t49.5 -50.5q-1 12 -5 23t-8.5 19t-7.5 13t-6 9q-8 9 -15 13.5t-11 4.5h-34l24 25
q14 14 53 24t72 10q9 0 17 -1t14 -3t10 -5q19 -13 53.5 -46t57.5 -71q-4 23 -14.5 46.5t-19.5 36.5t-13 16l-44 20l49 6q21 4 42 4q24 0 45.5 -4.5t39 -11.5t33 -17.5t27 -22t22 -25.5t17.5 -27.5t13 -28.5q1 40 -3 77l-3 24l22 -9q13 -5 32.5 -13.5t59 -34t59.5 -50.5
q34 -46 34 -95.5t-36 -85.5l-1 -2q-132 -105 -458 -121q-42 -2 -82 -2zM252 535q-13 0 -32 -10q-3 -2 -5 -3t-13 -7t-19 -11.5t-21 -16t-23 -21.5t-21 -26t-18.5 -30.5t-12 -35.5t-4.5 -41q0 -42 45.5 -77t138.5 -45q52 -6 126 -6q48 0 102.5 3.5t137 13.5t158.5 35.5
t124 63.5q17 19 23 43t-0.5 50t-24.5 51q-31 41 -117 80q6 -93 -13 -136l-23 -54l-4 59q-1 17 -5.5 35.5t-13 39.5t-23.5 39.5t-34 34t-47 24.5t-61 9h-6h-5q14 -21 24.5 -45.5t15.5 -58.5t-6 -64l-19 -57l-9 60q-6 42 -48 89.5t-74 69.5q-1 0 -2.5 1t-8 1.5t-14.5 0.5
q-42 0 -83 -14q8 -7 15 -16q9 -11 17.5 -25t15 -45t0.5 -63l-13 -69l-15 69q-2 12 -23.5 36.5t-45 44.5t-32.5 24h-4z" />
    <glyph glyph-name="uniE66B" unicode="&#xe66b;" 
d="M699 531q-1 43 0.5 83t4.5 77h239q19 0 34 -7t23.5 -21.5t8.5 -33.5v-312l-375 1q68 109 65 213zM616 461q-1 -6 -4 -16.5t-12 -31t-19 -28.5q-3 -3 -13 -10.5t-13 -10.5t-8.5 -9.5t-8 -13.5t-3.5 -17q-3 -20 -1.5 -40t20 -40.5t53.5 -34.5q13 -6 34.5 -12.5t39 -11.5
t37.5 -12.5t34.5 -16t26.5 -22t18 -30.5q11 -30 10.5 -86t-14.5 -77t-159 -44t-237 -23q-85 0 -220 21.5t-153 35.5q-11 9 -15.5 49t3.5 106q5 34 30.5 56t55 30t68.5 20.5t60 26.5q38 24 46.5 44.5t5.5 57.5q-1 7 -2 12.5t-4.5 11t-5.5 9t-8 9t-7.5 7t-9.5 8t-9 7.5
q-10 8 -18.5 27t-12.5 34l-4 15q-1 0 -3 0.5t-7 3.5t-9.5 7t-10 13.5t-9.5 22.5q-6 23 -2.5 40t9.5 26l7 10q1 2 0 14.5t1.5 37.5t6.5 50.5t15 55.5t26 52q63 90 186 90q27 0 54.5 -7t50 -18t40.5 -24.5t29 -27.5q30 -38 45 -94t15 -93v-37q2 -1 6 -5t9 -19t3 -34
q-6 -51 -40 -63zM474 149q2 5 -1 11.5t-8.5 12t-11.5 10.5t-10 9l-5 3h-49q-2 -2 -4.5 -4t-9 -8t-11.5 -11.5t-7.5 -11.5t-0.5 -10q4 -9 8.5 -16.5t8.5 -13.5q-27 -99 -27 -124q0 -7 14 -20.5t30.5 -25t23.5 -11.5q10 0 35.5 22t25.5 33q0 18 -24 124q15 13 23 31zM726 253
h269q6 0 10.5 -9.5t4.5 -20.5q0 -7 -2 -14.5t-5.5 -12.5t-7.5 -5h-205q-26 39 -64 62z" />
    <glyph glyph-name="uniE66C" unicode="&#xe66c;" 
d="M880 398q-15 0 -30 -3.5t-28 -9.5t-24 -15v96q0 10 -7 16.5t-17 6.5h-138q-5 6 -9 14t-9 23.5t0 36t21 42.5q11 15 18.5 30t10.5 29t4 27t-1.5 25t-5.5 22.5t-8 19.5t-10 16t-10 12q-7 7 -17 7t-17 -7t-7 -17t7 -17q2 -1 3.5 -3.5t5 -7.5t6 -11t5 -14t2 -17t-2 -19.5
t-7 -22.5t-14.5 -24q-53 -71 -21 -144h-132q-5 8 -8.5 17.5t-2 28.5t14.5 38q10 16 16 32.5t7 30.5t-1 26.5t-6.5 22.5t-9 17.5t-10.5 13.5q-7 6 -16.5 6t-16.5 -7t-7 -17t7 -16q3 -4 7.5 -10.5t4.5 -28t-15 -44.5q-35 -53 -16 -110h-134q-3 7 -4.5 13.5t0 17.5t6.5 20
t8.5 18t4.5 17t1 15.5t-1 14t-2.5 12.5t-3.5 10t-4 7.5t-3 5t-1 2.5q-6 8 -15.5 9.5t-17.5 -4t-9.5 -15.5t3.5 -18q2 -2 4 -6.5t2 -17.5t-7 -25q-20 -35 -11 -76h-112q-10 0 -17 -6.5t-7 -16.5v-130q0 -98 48.5 -181t131.5 -131.5t181 -48.5q109 0 198.5 60t132.5 157
q12 -19 29 -33t38.5 -21.5t44.5 -7.5q37 0 68 18t49 49t18 67q0 56 -39.5 95t-95.5 39zM437 23q-129 0 -221 91.5t-92 221.5v106h626v-106q0 -85 -42 -157t-114 -114t-157 -42zM880 177q-23 0 -43 12t-31.5 32t-11.5 43q0 18 6.5 34t18.5 27.5t28 18.5t33 7q24 0 44 -11.5
t31.5 -31.5t11.5 -44q0 -14 -4.5 -27.5t-12.5 -24t-18.5 -18.5t-23.5 -12.5t-28 -4.5z" />
    <glyph glyph-name="uniE66D" unicode="&#xe66d;" 
d="M225 304q54 9 105 -24q18 -11 33 3t10 34q-4 18 -39 26t-57 0q-11 -4 -11 1q2 10 30 17q30 8 68 2q6 -2 8.5 0.5t2.5 10.5q1 2 8 10t18 18.5t24.5 23t27 23t25 19t18.5 10.5q31 13 8 19q-8 2 -21 4q-37 4 -90 -5t-87 -35q-65 -51 -71 -102q-1 -7 -2.5 -12t-2 -8
t-2.5 -3.5t-2.5 -1t-2.5 0.5t-3 1q-4 1 -8.5 14t-3 34t14.5 37q22 28 13 27q-6 -1 -14 -11q-4 -3 -9 -8.5t-15.5 -22.5t-12.5 -33q-3 -18 2 -35t15.5 -26.5t22.5 -7.5zM372 466q57 13 57 -5q-1 -13 -23 -22q-9 -3 -18 -3q-29 -1 -29 15q2 11 13 15zM325 433q15 1 15 -6
q-1 -5 -10 -6q-14 -1 -13 7q0 5 8 5zM777 438q-22 16 -49 28t-53 18t-46 9.5t-38.5 5t-19.5 1.5q-9 -4 -24.5 -12t-59 -42t-82.5 -78q-11 -13 -11 -67v-9q0 -19 -1.5 -56t-1.5 -42q0 -8 -1.5 -11.5t-8 -6t-18.5 1.5q-3 0 -11 1q-99 17 -104 47q-5 28 -20 39q-10 7 -10 -10
q0 -5 1 -12q5 -36 19 -54.5t47 -32.5q47 -20 125 -23q12 -1 28.5 -6t28.5 -10.5t43 -20.5t50 -23q39 -18 53.5 -24.5t36 -13.5t33 -6t22.5 7q25 16 71 56t63 66q19 28 6 43q-10 12 -20 -2q-1 -2 -2 -3q-10 -22 -43.5 -58t-57.5 -46q-10 -4 -20.5 -6t-19.5 -2.5t-22.5 1.5
t-24.5 4.5t-30 7.5q-54 13 -118 50l1 180q1 2 2 5.5t6.5 14t13 21t21 25.5t30 28.5t41 28.5t52.5 27q4 0 11 -1t26 -6.5t36.5 -14.5t39 -29t36.5 -46q-22 12 -54.5 30t-54.5 30l-23 13q-4 -2 -11.5 -6t-28.5 -16.5t-38.5 -26t-37 -33.5t-30.5 -40q24 -7 47.5 -15t38.5 -14
t31 -11t28 -7t26 -1.5t28 4.5q17 5 34 13t28.5 15.5t21 14t13.5 10.5l5 4q-1 -2 -1.5 -5t-4 -12.5t-8.5 -18t-15.5 -19t-23.5 -17.5q-5 -3 -22 -12.5t-21.5 -12t-18.5 -7t-23 -3.5t-23 4t-30 10q-26 12 -45.5 20t-35.5 13.5t-24.5 5t-7.5 -6.5q0 -3 -0.5 -10.5t1 -10.5t6 -9
t15.5 -12t28 -13q15 -6 42 -19t41.5 -18.5t37 -6t45.5 9.5q49 23 88.5 53t43.5 51q6 25 -16 62.5t-77 77.5zM276 512q9 5 23 10t27 7.5t25 4.5t19 3l7 1q-3 3 -9 7t-21 17t-26.5 26t-22.5 30.5t-14 33.5q30 -14 58.5 -42.5t42.5 -49.5l14 -22l20 5l-3 78q-43 37 -85 57
q-19 9 -49.5 20t-51.5 17l-22 7q4 -15 11 -38t27.5 -71t38.5 -70q-27 6 -58.5 60t-37.5 126v-45q10 -112 87 -172zM511 549q-2 27 5 55.5t15 43.5l8 14q-2 -9 -3.5 -23.5t-0.5 -45t8 -44.5q8 -1 14.5 -3t11.5 -3.5t9 -3.5l7 -3q3 -2 5 -3.5t3 -2.5h1q2 6 4.5 17t1 39
t-12.5 50q-10 19 -25 41.5t-29 45.5t-25 49q-3 -3 -8 -9t-18 -27.5t-22.5 -45.5t-16.5 -62.5t-4 -78.5q37 4 72 0z" />
    <glyph glyph-name="uniE66E" unicode="&#xe66e;" 
d="M514 832q-13 0 -25.5 -1t-25.5 -2q-30 -4 -59 -11t-57 -19l304 -303q5 -4 5 -5v317q-3 1 -6.5 2.5t-7 2.5t-6.5 2t-7 2q-57 15 -115 15zM828 702q-4 5 -9 9.5t-9.5 8.5t-9.5 8l-10 8q-47 38 -102 61q2 -423 0 -437l224 225q-2 4 -4 8.5t-4.5 8.5t-4.5 8q-30 52 -71 92z
M927 550q-298 -301 -309 -309h317q3 6 5 13l4 14q7 28 11 57t4 58q0 25 -3 51q-7 60 -29 116zM485 207l225 -224q13 6 25 13q51 30 92 71q17 17 34 38q12 16 23 32.5t20.5 34t17.5 35.5h-437zM370 278v-318l6 -2l8 -2l6 -2q4 -1 7 -2q57 -15 115 -15h18q8 0 16 1t17 2
q15 1 30 4t29.5 6.5t28.5 8t28 10.5l-17 17q-17 16 -43.5 42.5t-59 58.5t-65.5 65l-60 60q-27 27 -45 45.5t-19 20.5zM338 410l-225 -224q6 -12 14 -25q29 -52 71 -93q17 -17 37 -33q48 -38 103 -61q0 -1 -0.5 109.5t-0.5 207.5t1 119zM82 500q-7 -28 -11 -57t-4 -58
q0 -13 0.5 -25.5t2.5 -25.5q7 -60 29 -115q298 301 309 308h-317q-3 -6 -5 -13zM289 770q-51 -29 -92 -70q-17 -17 -34 -38q-19 -24 -34 -49.5t-27 -53.5h437l-225 225q-6 -3 -12.5 -6.5t-12.5 -7.5z" />
    <glyph glyph-name="uniE66F" unicode="&#xe66f;" horiz-adv-x="1000" 
d="M923 649q-1 5 -1.5 8.5t-0.5 7.5q-102 3 -167 28q-17 6 -33.5 17.5t-25.5 19.5l-8 8q0 18 -13 30.5t-31 12.5h-262q-12 0 -22 -5.5t-16 -15.5t-6 -22l-1 -2l-4.5 -4.5t-7.5 -6.5l-10 -7q-6 -5 -12 -9t-13.5 -8t-14.5 -7q-28 -11 -71 -18.5t-72 -8.5l-29 -2q0 -7 -2 -18
q-24 -11 -24 -38v-496q0 -17 12.5 -29.5t30.5 -12.5h787q18 0 31 12.5t13 29.5v496q0 29 -27 40zM512 179q-44 0 -84.5 17t-70 45.5t-46.5 67.5t-17 83q0 88 64 150.5t154 62.5q60 0 110 -28.5t79.5 -77.5t29.5 -107q0 -25 -6 -49t-16.5 -45t-25.5 -39.5t-34 -33t-40.5 -25
t-46 -16t-50.5 -5.5zM512 520q-35 0 -65.5 -17.5t-48 -46.5t-17.5 -64q0 -53 38.5 -90.5t93 -37.5t92.5 37.5t38 90.5t-38 90.5t-93 37.5z" />
    <glyph glyph-name="uniE670" unicode="&#xe670;" 
d="M513.5 832q-91.5 0 -174.5 -35.5t-143 -95.5t-95 -143t-35 -174.5t35 -174.5t95 -143t143 -95.5t174.5 -35.5t174.5 35.5t143 95.5t95.5 143t35.5 174.5t-35.5 174.5t-95.5 143t-143 95.5t-174.5 35.5zM513 12q-101 0 -186.5 50t-135.5 135.5t-50 186.5q0 76 29.5 144.5
t79.5 118.5t118.5 79.5t144.5 29.5t144.5 -29.5t118.5 -79.5t79.5 -118.5t29.5 -144.5q0 -148 -102 -255q-99 -106 -244 -116q-14 -1 -26 -1zM343 540q-18 0 -31 -13t-13 -31v-1q0 -19 13 -31.5t31 -12.5q12 0 22 5.5t16 16t6 22.5v1q0 7 -2.5 13.5t-6.5 12t-9.5 9.5
t-12 6.5t-13.5 2.5zM689 540q-18 0 -31 -13t-13 -31v-1q0 -19 13 -31.5t31 -12.5t31 12.5t13 31.5v1q0 18 -13 31t-31 13zM717 287q0 16 -11 26.5t-26 10.5t-26 -10.5t-11 -26.5v-2q-10 -25 -29 -44.5t-45 -30.5t-55 -11q-43 0 -78 24t-51 62v1v1q0 16 -11 27t-27 11
q-10 0 -18.5 -5t-13.5 -13.5t-5 -19.5q0 -15 11 -26q23 -59 75.5 -95t117.5 -36q67 0 120.5 38t75.5 98q7 10 7 21z" />
    <glyph glyph-name="uniE671" unicode="&#xe671;" horiz-adv-x="1000" 
d="M468 861q-89 0 -170 -34.5t-139.5 -93t-93.5 -140t-35 -169.5q0 -72 22 -138.5t62.5 -120.5t94.5 -94.5t120.5 -62.5t138.5 -22q89 0 170 34.5t139.5 93t93 139.5t34.5 170t-34.5 170.5t-93 140t-139.5 93t-170 34.5zM620 327q12 -11 0 -22l-34 -35q-11 -11 -22 0l-97 97
l-97 -97q-11 -11 -22 0l-34 35q-12 11 0 22l96 97l-96 96q-12 12 0 23l34 34q11 12 22 0l97 -96l97 96q11 11 22 0l34 -34q12 -11 0 -23l-96 -96z" />
    <glyph glyph-name="uniE672" unicode="&#xe672;" 
d="M297 15h-35h-32q-18 0 -28.5 10.5t-10.5 27.5q-1 115 0 261q0 4 2.5 8t5.5 7q49 41 149 123l71 59q55 45 82 67q2 1 3 2l3 3q3 2 5 4l18 -15q36 -29 55 -45q9 -8 21 -17.5t18.5 -15t21.5 -18.5q117 -96 175 -144q13 -10 13 -26q-1 -87 0 -247q0 -27 -18 -38q-9 -5 -17 -5
q-43 -1 -101 -1h-66h-45q-1 0 -3 1h-1l-1 1v211h-139v-212h-1h-4l-8 -1h-32h-34h-67zM512 585l-2 -2q-1 -1 -2 -1q-4 -4 -6 -5q-12 -11 -27.5 -23.5t-25.5 -21t-29 -23.5l-71 -58q-32 -27 -50.5 -42.5t-47 -39t-51.5 -42.5q-2 -1 -3.5 -3.5t-2.5 -5t-1 -4.5q-1 -146 0 -261
q0 -11 4.5 -19t13 -12.5t19.5 -4.5h134h1h1h1h1h1h1h1h1h1h1h1h1h1h1h1h1h1h1h1h1h1h1h1h1h1h1h1h1h1h1h1h1h1h1h1h1h1h1h1h1h1h1h1h1h1h1h1h1h1h1h1h1h1h1h1h1h1h1h1h1h1h1h1h1h1h1h8q2 1 3 1v212h143v-212h1q1 -1 2 -1h15h14h16h66h54h47q3 0 6.5 1t5.5 2.5t4 2.5
q17 10 17 36v247q0 15 -12 25q-58 48 -175 144q-40 33 -62 51q-17 15 -54 45zM297 0h-67q-24 0 -39 15t-16 38q0 115 1 261q0 15 13 26q50 42 150 124l70 59q13 10 21.5 17t19.5 16t21.5 17.5t19.5 16.5q3 2 7 5l4 4l10 8l28 -23q35 -29 54 -45q18 -14 58 -47l4 -4
q116 -96 175 -144q18 -15 18 -38v-247q0 -9 -1.5 -16.5t-4.5 -14t-7.5 -11.5t-11.5 -9q-12 -8 -25 -8h-101h-12h-11h-13h-11h-12h-8h-44q-3 0 -7 1v0l-1 1l-12 3v208h-109v-212h-15q-2 -1 -4 -1h-3h-2h-4h-66h-1h-1h-1h-1h-1h-1h-1h-1h-1h-1h-1h-1h-1h-1h-1h-1h-1h-1h-1h-1
h-1h-1h-1h-1h-1h-1h-1h-1h-1h-1h-1h-1h-1h-1h-1h-1h-1h-1h-1h-1h-1h-1h-1h-1h-1h-1h-1h-1h-1h-1h-1h-1h-1h-1h-1h-1h-1h-1h-1h-1h-1h-1h-1h-1h-1h-2zM208 313q-1 -146 0 -260q0 -21 22 -21h69h75h18h16h17v213h174v-212h10h13h10h2h16h16h16h16h23h21h20h19h18q1 0 3.5 0.5
t4.5 2.5q10 6 10 22q-1 161 0 249q0 7 -6 12q-28 22 -61 49.5t-54.5 45t-59.5 49.5h-1q-40 33 -61 51q-9 7 -19 15.5t-17 14t-18 15.5l-8 6q-10 -8 -20 -16.5t-21.5 -18t-19 -15.5t-21.5 -17l-71 -59q-25 -20 -38.5 -31.5t-35 -29t-40 -33t-35.5 -30.5q-1 0 -2 -2zM116 330
q-9 0 -18 11q-15 17 -28 33q-15 18 3 34q19 16 43 35.5t39 32.5t42 35t43 35q25 22 73 61q99 83 149 124q12 11 25 16.5t25 5.5q25 0 51 -22q7 -6 15 -12.5t16 -13.5t15 -12.5t16.5 -13.5t15 -12.5t15.5 -13.5l26 -22q1 -1 4 -3l2 -2v33v33v32q0 5 0.5 9t2 7t3.5 5t5 3
t6.5 1.5t9.5 0.5h48h15h16h16q13 0 18.5 -5t5.5 -19v-30v-88q0 -49 -1 -89q0 -7 2.5 -12.5t8.5 -10.5l84 -69q6 -5 10.5 -9t9.5 -8q13 -11 13.5 -18.5t-10.5 -20.5q-4 -4 -11 -13l-15 -18q-4 -5 -8 -7.5t-9 -2.5q-3 0 -7 2t-9 6q-66 55 -190 158q-55 46 -96 80.5t-81 67.5
q-2 1 -3.5 2.5t-4.5 3.5l-5 5q-6 -6 -12.5 -11.5t-16.5 -12.5q-8 -7 -13 -11.5t-12.5 -10.5t-14 -11.5t-13.5 -10.5q-8 -8 -18 -16t-17.5 -14.5t-19 -16t-17.5 -14.5t-19 -16t-17.5 -14.5t-19 -16t-18.5 -14.5q-89 -75 -151 -127q-10 -8 -17 -8zM512 751q-24 0 -49 -21
q-50 -42 -149 -124q-11 -9 -19 -15.5t-17 -14.5l-20 -16q-9 -8 -17 -15l-42 -35q-84 -69 -125 -104q-16 -14 -2 -31q13 -15 28 -33q8 -10 16 -10q6 0 15 7q51 43 152 127q98 81 146 122l24 20q12 10 29 24q1 1 5.5 5t6.5 5.5t5.5 4t6.5 5t5 4.5l1 1v-1q2 -1 7 -4l7 -7
q60 -49 177 -147q128 -107 190 -159q9 -7 15 -7q8 0 16 10q3 3 6.5 7t8.5 10q7 9 11 13q10 13 9.5 19.5t-12.5 17.5q-6 5 -19 15q-1 1 -1 2q-56 46 -84 68q-12 10 -11 25v89v88v30q0 13 -4.5 18t-17.5 5h-11h-13h-12h-11h-48q-15 0 -20 -5t-5 -20v-65v-34v-2l-1 1
q-1 1 -2 1.5t-2 1.5q-3 2 -4 3l-26 22q-21 17 -32.5 26.5t-29 24.5t-32.5 27q-8 7 -16 11.5t-16.5 7t-16.5 2.5zM116 315q-16 0 -30 16q-3 4 -7 8.5t-7.5 8.5t-6.5 8t-7 8q-25 30 5 55q42 36 125 104q1 1 5.5 5t6.5 5.5t5.5 4.5t6 5t6 5t6.5 5.5t6 4.5q26 22 73 61
q99 83 149 124q10 8 20 14t20 8.5t20 2.5q31 0 60 -25q15 -12 33 -27t29 -24.5t32 -26.5l7 -6v65q0 6 0.5 10.5t2 8.5t3 7t4 6t6 4.5t7.5 3t8.5 2t10.5 0.5h48h15h16h17q38 0 38 -40v-30v-46v-40v-48v-43q0 -3 0.5 -5t1.5 -3l3 -3l84 -69q6 -5 10.5 -9t9.5 -8q18 -15 19 -29
q1 -8 -3 -15.5t-11 -16.5q-2 -3 -4.5 -6t-6.5 -7q-2 -2 -2.5 -3t-2 -3t-3 -3t-2.5 -2.5t-2.5 -3t-2.5 -3.5q-13 -15 -29 -15q-5 0 -10.5 2t-8.5 4t-7 5q-68 57 -190 159q-110 92 -177 147l-1 2l-2 1q-4 -4 -8.5 -8t-10.5 -8q-11 -9 -18 -15t-16.5 -14t-18.5 -15
q-40 -34 -142 -119l-4 -3q-80 -67 -152 -127q-6 -5 -12.5 -8t-13.5 -3zM512 677l10 -9q2 -1 3 -2t3 -2v-1q5 -4 8 -6q62 -52 177 -147l3 -3q123 -103 187 -156q2 -2 3 -2.5t2 -1.5q2 2 4 5q5 5 15 17q7 9 11 13q5 5 6 8q-2 3 -7 7q-4 3 -17 14l-3 3q-55 46 -83 69
q-18 14 -18 37q1 59 0 176v30v4v3h-2h-4h-47h-48h-9v-9v-32v-33v-68l-27 21l-3 3q-3 2 -5 3l-26 22q-63 52 -93 78q-21 18 -40 18q-5 0 -9.5 -1.5t-9.5 -3.5t-10 -5t-10 -8q-51 -42 -149 -124q-23 -18 -40 -32.5t-34 -28.5l-42 -35q-20 -17 -31.5 -26.5t-29.5 -24.5l-33 -27
l-30 -26q-3 -2 -4 -4q1 -2 3 -5q13 -16 28 -33l5 -5q2 1 6 4q34 29 69 58.5t82 68.5l5 4q43 36 76.5 63.5t64.5 54.5q18 15 53 44l6 5q1 1 3 2q4 4 6.5 6t6.5 5.5t8 5.5z" />
    <glyph glyph-name="uniE673" unicode="&#xe673;" 
d="M63 407q0 -32 22.5 -54.5t54.5 -22.5h743q32 0 54.5 22.5t22.5 54.5q-1 32 -23.5 54.5t-54.5 22.5h-743q-32 0 -54.5 -22.5t-21.5 -54.5z" />
    <glyph glyph-name="uniE674" unicode="&#xe674;" 
d="M882 472h-294l1 284v0v5h-1q-2 30 -24.5 51t-53 21t-53 -20.5t-23.5 -50.5h-1v-290h-294q-32 0 -54.5 -22.5t-22 -54.5t23 -55t54.5 -23h293v-298q0 -21 10.5 -39t28.5 -28.5t39 -10.5q32 0 54 22.5t22 54.5l1 299l295 1q32 -1 54.5 21.5t22 54.5t-23 54.5t-54.5 23.5z
" />
    <glyph glyph-name="uniE675" unicode="&#xe675;" 
d="M941 456h-357v357q0 2 -0.5 4.5t-1.5 4t-2.5 3.5t-3.5 3t-4.5 1.5t-4.5 0.5h-110q-8 0 -13 -5t-5 -12v-357h-357q-17 0 -17 -18v-110q0 -5 2 -9t6 -6t9 -2h357v-357q0 -8 5 -13t13 -5h110q7 0 12 5t5 13v357h357q8 0 13 5t5 12v110q0 8 -5 13t-13 5z" />
    <glyph glyph-name="uniE676" unicode="&#xe676;" 
d="M921 654q0 37 -18 62t-45 25h-691q-11 0 -20.5 -4t-17.5 -12t-13.5 -19t-9 -24.5t-3.5 -27.5q0 -25 8.5 -45t23 -31.5t32.5 -11.5h62l-72 -475v-2q0 -17 11.5 -31.5t32 -23t44.5 -8.5q36 0 61.5 18t26.5 44l27 180h305l27 -180q0 -9 3.5 -17t9 -15t13.5 -12.5t17.5 -9.5
t21 -6t23.5 -2q24 0 44 8.5t31.5 23t11.5 31.5v2l-72 475h63q27 0 45 25.5t18 62.5zM144 653.5q0 19.5 7.5 33t15.5 13.5h691q8 0 15 -13.5t7 -33t-7 -33t-15 -13.5h-691q-8 0 -15.5 13.5t-7.5 33zM292 91v-2q0 -7 -14 -14.5t-33 -7.5q-7 0 -13 1t-11 2.5t-9 3.5t-7 4.5
t-4.5 5t-2.5 4.5l73 478h93zM367 309l9 61h272l10 -61h-291zM780 67q-20 0 -33.5 7.5t-13.5 14.5l-72 477h93l72 -478q0 -3 -3.5 -6.5t-9.5 -7t-15 -5.5t-18 -2zM643 410h-261l23 156h214z" />
    <glyph glyph-name="uniE677" unicode="&#xe677;" 
d="M949 25h-831q-15 0 -25 10.5t-10 24.5v687q0 7 3 13t7.5 11t11 7.5t13.5 2.5h578q7 0 13.5 -2.5t11 -7.5t7 -11t2.5 -13q0 -15 -10 -25t-24 -10h-544v-618h763v436q0 14 10 24t24 10t24 -10t10 -24v-470q0 -25 -23 -33q-6 -1 -11 -2zM533 369q-3 0 -7 0.5t-7 2.5t-6.5 4
t-5.5 5q-9 11 -8 25.5t12 23.5l416 343q11 9 25 8t23.5 -12t8 -25.5t-12.5 -23.5l-416 -343q-5 -4 -10.5 -6t-11.5 -2z" />
    <glyph glyph-name="uniE678" unicode="&#xe678;" 
d="M507 876l-150 -285l-354 -66l226 -237l-18 -351l304 130l305 -129l-40 337l240 246l-338 71z" />
    <glyph glyph-name="uniE679" unicode="&#xe679;" 
d="M511.5 151q-38.5 0 -64.5 26l-371 371q-12 12 -12 28.5t12 28.5t28.5 12t28.5 -12l371 -371q8 -7 15 1l371 370q12 12 28.5 12t28.5 -12q4 -5 7 -10.5t4 -12t0 -12.5t-4 -12t-7 -10l-371 -371q-26 -26 -64.5 -26z" />
    <glyph glyph-name="uniE67A" unicode="&#xe67a;" 
d="M512 831q-41 0 -80.5 -7t-75.5 -20.5t-69.5 -33t-62.5 -44.5t-54 -54t-44.5 -62.5t-33 -69.5t-20.5 -75.5t-7 -80.5q0 -91 35 -174t95 -143t143 -95t174 -35q61 0 119 16t107 44.5t90.5 70t70 90.5t44.5 107t16 119q0 91 -35 174t-95 143t-143 95t-174 35zM429 167
l-200 200l45 45l155 -155l321 322l45 -46z" />
    <glyph glyph-name="uniE67B" unicode="&#xe67b;" 
d="M1004 404h-120q-5 94 -53 172.5t-126.5 126.5t-172.5 53v120q0 5 -2.5 10t-7 7.5t-10.5 2.5q-8 0 -14 -6t-6 -14v-120q-94 -5 -172.5 -53t-126.5 -126.5t-53 -172.5h-120q-8 0 -14 -6t-6 -14q0 -6 2.5 -10.5t7.5 -7t10 -2.5h120q8 -142 109 -243t243 -109v-120
q0 -8 6 -14t14 -6q6 0 10.5 2.5t7 7.5t2.5 10v120q142 8 243 109t109 243h120q8 0 14 6t6 14q0 3 -1 6t-3 5.5t-4.5 4.5t-5.5 3t-6 1zM532 53v128q0 8 -6 14t-14 6q-5 0 -10 -2.5t-7.5 -7.5t-2.5 -10v-128q-125 8 -214 97t-97 214h128q4 0 8 1.5t6.5 4t4 6.5t1.5 8
q0 8 -6 14t-14 6h-128q8 125 97 214t214 97v-128q0 -8 6 -14t14 -6t14 6t6 14v128q125 -8 214 -97t97 -214h-128q-8 0 -14 -6t-6 -14t6 -14t14 -6h128q-8 -125 -97 -214t-214 -97z" />
    <glyph glyph-name="uniE67C" unicode="&#xe67c;" 
d="M126 -2l198 62l458 458l-136 136l-458 -458zM748 756l-56 -57l135 -135l57 56q14 14 14 34t-14 34l-68 68q-14 14 -34 14t-34 -14z" />
    <glyph glyph-name="uniE67D" unicode="&#xe67d;" 
d="M429 -53q-33 0 -57 24t-24 57q0 22 11 40.5t29.5 29.5t40.5 11q33 0 57 -24t24 -57t-24 -57t-57 -24zM429 58q-6 0 -11.5 -2.5t-9.5 -6.5t-6.5 -9.5t-2.5 -11.5q0 -12 9 -21t21 -9q6 0 11.5 2.5t9.5 6.5t6.5 9.5t2.5 11.5q0 8 -4 15t-11 11t-15 4zM766 -53
q-34 0 -57.5 24t-23.5 57q0 22 10.5 40.5t29.5 29.5t41 11q33 0 56.5 -24t23.5 -57q0 -22 -10.5 -40.5t-29 -29.5t-40.5 -11zM765.5 58q-12.5 0 -21 -9t-8.5 -21t8.5 -21t21.5 -9q6 0 11.5 2.5t9.5 6.5t6 9.5t2 11.5q0 12 -8.5 21t-21 9zM895 169h-576q-18 0 -22 17
l-123 495h-112q-9 0 -16 7t-7 16.5t7 16t16 6.5h130q8 0 14 -4.5t8 -12.5l123 -495h538l50 404h-603q-10 0 -16.5 7t-6.5 16.5t6.5 16t16.5 6.5h629q10 0 17 -7.5t6 -18.5l-56 -450q0 -2 -1 -4.5t-2 -4.5t-3 -4t-3.5 -3t-4 -2t-4.5 -1.5t-5 -0.5z" />
    <glyph glyph-name="uniE67E" unicode="&#xe67e;" 
d="M512 896q-162 0 -282 -108q-116 -104 -133 -257q-3 -23 -3 -45q0 -46 23 -103t58.5 -109t56 -78.5t35.5 -44.5q11 -12 18.5 -21t12 -14.5t8.5 -11.5t6.5 -9.5t6.5 -10.5q11 -17 20 -30.5t39.5 -54t74.5 -96.5q24 -29 59 -30q36 1 60 30q95 121 134 181q17 27 52 67
q11 12 25 30t42.5 58t50 78t38 85t16.5 84q0 111 -56 205.5t-152 149.5t-210 55zM708 192q-18 -21 -29 -34.5t-16 -20.5t-12 -18q-10 -16 -19.5 -29t-39 -53t-72.5 -95q-2 -3 -8 -4q-1 0 -2 0.5t-2.5 1.5t-3.5 2q-94 120 -130 177l-6 9q-2 3 -5.5 8.5t-7.5 10t-9 11.5
t-12.5 15t-16.5 19q-23 27 -45.5 56.5t-42.5 62t-35.5 63.5t-24.5 60t-9 52q0 94 47 173.5t128.5 126t176.5 46.5q96 0 177.5 -46.5t128.5 -126t47 -173.5q0 -55 -47 -138t-110 -156zM512 640q-66 0 -113 -47t-47 -113t47 -113t113 -47q44 0 81 21.5t58 58.5t21 80
q0 15 -2.5 29t-7.5 27t-11.5 25t-15.5 22.5t-19.5 19t-22.5 15.5t-25 12t-27 7.5t-29 2.5zM512 384q-19 0 -37 7.5t-30.5 20.5t-20.5 31t-8 37q0 40 28.5 68t68 28t67.5 -28t28 -68q0 -26 -12.5 -48t-35 -35t-48.5 -13zM512 384z" />
    <glyph glyph-name="uniE67F" unicode="&#xe67f;" 
d="M204 -60q33 251 39 292q4 29 -17 49q-38 38 -185 187q-1 1 -26 29q26 5 91.5 17.5t111 20.5t88.5 15q15 2 27 7.5t21 14.5t16 23q17 30 143 246q13 -22 46 -77.5t55.5 -94.5t42.5 -76q11 -20 25.5 -29.5t37.5 -13.5q35 -6 290 -52q-1 -3 -3 -5t-3.5 -4t-3.5 -4t-3.5 -4
t-2.5 -3.5t-2 -3.5l-4 -3q-139 -141 -187 -189q-22 -21 -17 -49q6 -42 38 -293q-239 106 -275 123q-18 8 -33 8t-34 -8q-35 -17 -276 -123z" />
    <glyph glyph-name="uniE680" unicode="&#xe680;" 
d="M512 677q-7 0 -13 -4l-425 -286q-8 -5 -10 -14.5t3.5 -17t14.5 -9.5t17 3l413 278l413 -278q5 -3 11 -3.5t11.5 2t8.5 8.5q6 7 4 16.5t-10 14.5l-425 286q-6 4 -13 4zM512 423q-7 0 -13 -4l-425 -286q-8 -5 -10 -14.5t3.5 -17.5t14.5 -9.5t17 3.5l413 278l413 -278
q5 -3 11 -3.5t11.5 2t8.5 7.5q6 8 4 17.5t-10 14.5l-425 286q-6 4 -13 4z" />
    <glyph glyph-name="uniE681" unicode="&#xe681;" 
d="M384 708v-3v-155v-2h-254q-2 1 -2 2v155l2 3h254zM385 740h-255q-14 0 -24 -10.5t-10 -24.5v-155q0 -14 10 -24t24 -10h255q6 0 12 2.5t10 7.5t6.5 11t2.5 13v155q0 14 -9 24.5t-23 10.5h1zM800 228q9 0 16.5 -4t11.5 -11.5t4 -16t-4 -16t-11.5 -12t-16 -4.5t-16 4.5
t-12 12t-4.5 15.5q0 13 9.5 22.5t22.5 9.5zM800 260q-26 0 -45 -18.5t-19 -45t19 -45.5t45.5 -19t45 19t18.5 45.5t-18.5 45t-45.5 18.5zM273 228q13 0 22.5 -9.5t9.5 -22.5t-9.5 -22.5t-22.5 -9.5q-9 0 -16.5 4.5t-11.5 12t-4 16t4 16t11.5 11.5t16.5 4zM273 260
q-27 0 -45.5 -18.5t-18.5 -45t18.5 -45.5t45 -19t45.5 19t19 45q0 18 -8.5 32.5t-23.5 23t-32 8.5zM816 580v48q7 31 0 52.5t-27.5 32.5t-52.5 11q-6 0 -17 -1.5t-24 -3.5t-27.5 -5t-28 -6.5t-26.5 -7.5t-21 -8q-23 -12 -26 -24.5t10 -23.5v0q4 3 8.5 6.5t10 6.5t12.5 6
t15 5q-1 0 18.5 5.5t48 11.5t47.5 7q17 0 30.5 -4t18.5 -12q9 -12 0 -38q-1 -5 -1 -10v-48q0 -3 0.5 -6t1.5 -6q4 -10 10.5 -25t11 -26t14.5 -34q22 -48 34.5 -78t32 -77t29 -79t9.5 -47q0 -37 -18 -68.5t-49.5 -49.5t-67.5 -18q-40 0 -73.5 21.5t-50.5 58.5q-9 18 -29 18
h-222q-21 0 -29 -18q-17 -37 -50.5 -58.5t-73.5 -21.5q-56 0 -96 39.5t-40 96.5l3 23q2 13 -5 23q-30 46 -30 100q0 31 6.5 57.5t14.5 46.5h267q-15 -13 -23 -32.5t-9.5 -42.5t3.5 -48q11 -46 41.5 -74t70.5 -28q9 0 18 2q99 16 161 83t73 168q4 30 0.5 57.5t-14 51
t-26.5 41.5l-2 2l-3 2l-2 3q-11 10 -31 3q-12 -6 -5 -15q29 -19 43 -56.5t9 -84.5q-11 -100 -69 -155t-139 -69q-7 -1 -13 -1q-40 0 -64 38t-20 81t33 58v48h-319q-33 -59 -33 -136q0 -63 35 -117q-3 -15 -3 -29q0 -70 49.5 -119t118.5 -49q50 0 91.5 27t61.5 71h222
q20 -44 61 -71t92 -27q69 0 118 49t49 119q0 30 -26.5 101.5t-69 166.5t-47.5 110z" />
    <glyph glyph-name="uniE682" unicode="&#xe682;" 
d="M470 345h-336q-15 0 -28 7.5t-20 20.5t-7 28q0 23 16 39.5t39 16.5h336h112h336q23 0 39.5 -16.5t16.5 -39.5t-16.5 -39.5t-39.5 -16.5h-336h-112z" />
    <glyph glyph-name="uniE683" unicode="&#xe683;" 
d="M263 433h498v-98h-498v98zM463 633h98v-498h-98v498zM65 832v-896h894v896h-894zM861 35h-698v698h698v-698z" />
    <glyph glyph-name="uniE684" unicode="&#xe684;" 
d="M512 832q-91 0 -174 -35.5t-143 -95.5t-95.5 -143t-35.5 -174t35.5 -174t95.5 -143t143 -95.5t174 -35.5t174 35.5t143 95.5t95.5 143t35.5 174q0 73 -22.5 141.5t-64 123.5t-96.5 96.5t-123.5 64t-141.5 22.5zM796 100q-55 -56 -127 -87q-75 -31 -157 -31t-157 31
q-72 31 -127.5 86.5t-86.5 127.5q-31 75 -31 157t31 157q31 72 87 127q27 28 59.5 49.5t67.5 37.5q75 31 157 31q41 0 80 -8t77 -23q35 -16 67.5 -37.5t59.5 -49.5q56 -55 87 -127q31 -75 31 -157q0 -27 -3.5 -53.5t-10.5 -52.5t-17 -51q-11 -23 -24 -45.5t-28.5 -43
t-34.5 -38.5z" />
    <glyph glyph-name="uniE685" unicode="&#xe685;" 
d="M406 538q-7 7 -7 16.5t7 16.5q3 3 6.5 5t7.5 2.5t7.5 0t7 -2.5t6.5 -5l175 -170q5 -5 6.5 -11t0 -12t-6.5 -11l-175 -170q-7 -7 -17.5 -7t-17.5 7t-7 17t7 17l158 153zM406 538z" />
    <glyph glyph-name="uniE686" unicode="&#xe686;" 
d="M64 643v-93h896v93h-896zM64 241h896v93h-896v-93zM64 241z" />
    <glyph glyph-name="uniE687" unicode="&#xe687;" 
d="M736 -128l-512 512l512 512l64 -63l-449 -449l449 -449z" />
    <glyph glyph-name="uniE688" unicode="&#xe688;" 
d="M1002 527v-511q0 -34 -23.5 -57.5t-57.5 -23.5h-81q-33 0 -57 23.5t-24 57.5v25h-494v-25q0 -34 -24 -57.5t-57 -23.5h-81q-34 0 -57.5 23.5t-23.5 57.5v510q0 33 23.5 57t57.5 24h60q34 0 57.5 -24t23.5 -57v-242h536v243q0 33 23.5 57t57.5 24h60q34 0 57.5 -24
t23.5 -57zM298 537v-204h428v204q0 34 40.5 74.5t73.5 40.5h63v116q0 21 -10 38t-27 27t-38 10h-631q-21 0 -38 -10t-27 -27t-10 -38v-116h62q37 0 80 -47q34 -38 34 -68z" />
    <glyph glyph-name="uniE689" unicode="&#xe689;" 
d="M690 683q0 -10 -9 -17t-22 -7h-459q-13 0 -22.5 7t-9.5 17t9.5 17.5t22.5 7.5h459q9 0 16 -3.5t11 -9t4 -12.5zM608 494q0 -5 -2 -9.5t-5.5 -8t-8.5 -5.5t-10 -2h-387q-11 0 -19 7.5t-8 17.5q0 6 3.5 12t10 9t13.5 3h387q20 0 25 -18q1 -4 1 -6zM516 305q0 -11 -6 -18
t-14 -7h-307q-8 0 -14.5 7t-6.5 18q0 5 2 9.5t4.5 7.5t6.5 5t8 2h307q8 0 14 -7t6 -17zM492 67q-3 -4 -6.5 -7.5t-7.5 -5.5t-8 -3t-7.5 -0.5t-6.5 2.5q-8 5 -8.5 16.5t6.5 22.5l471 729q5 8 11.5 12.5t13 5t12.5 -2.5q8 -6 8.5 -17t-6.5 -22zM868 531v-528
q0 -29 -19.5 -49.5t-47.5 -20.5h-631q-28 0 -47.5 20.5t-19.5 49.5v762q0 29 19.5 49.5t47.5 20.5h624v49h-624q-32 0 -58.5 -16t-42 -43.5t-15.5 -59.5v-762q0 -49 34 -84t82 -35h631q24 0 45.5 9.5t37 25.5t24.5 38t9 46v528h-49z" />
    <glyph glyph-name="uniE68A" unicode="&#xe68a;" horiz-adv-x="1026" 
d="M546 561q0 -5 -1 -9t-3 -7t-5 -6t-6.5 -5t-7.5 -3t-8 -1q-8 0 -15 4t-11 11t-4 16q0 88 -62 150q-30 29 -68.5 45.5t-81.5 16.5q-88 0 -150 -62q-14 -15 -25.5 -32t-19.5 -36t-12.5 -40t-4.5 -42q0 -92 38 -158q18 -30 44 -58.5t65 -65.5l305 -284l305 284q9 8 16.5 15.5
t16 15.5t15.5 16l14 14q7 8 13 15.5t12 15.5t11.5 16t9.5 16q39 66 39 158q0 88 -62 150q-20 19 -43 33t-50.5 21.5t-56.5 7.5q-39 0 -75 -13q-9 -4 -17.5 -8t-16.5 -9t-16 -11t-15 -12q-10 -8 -22.5 -7.5t-20.5 10.5q-6 6 -7.5 14t1 16t9.5 13q37 33 84 51q15 6 30.5 9.5
t32 5.5t33.5 2q113 0 193 -80t80 -193q0 -109 -47 -189q-34 -58 -120 -138l-325 -303l-21 -20l-21 20l-325 303q-86 80 -120 138q-47 80 -47 189q0 18 2.5 36.5t7.5 36t11.5 34t15.5 31.5t20 29t23 26q38 38 87.5 59t105.5 21q113 0 193 -80q38 -38 59 -88t21 -105z" />
    <glyph glyph-name="uniE68B" unicode="&#xe68b;" 
d="M512 101l-512 511l55 55h914l55 -55z" />
    <glyph glyph-name="uniE68C" unicode="&#xe68c;" 
d="M886 680q0 10 -3 22l3 1l-6 7q-9 22 -29 35.5t-44 13.5h-590q-22 0 -42 -11h-1l-1 -2q-36 -23 -36 -66v-590q0 -33 23.5 -56t56.5 -23h590q33 0 56 23t23 56v66q0 3 -1 6l-2 4q-1 3 -3 5t-4 3l-6 2q-2 1 -5 1q-9 0 -15 -6t-6 -15v0v0v-62q0 -11 -5.5 -20.5t-15 -15.5
t-21.5 -6h-376v0h-33v0h-172q-18 0 -30 12.5t-12 29.5v582v4q0 2 0.5 3.5t1 3.5t1 3.5t1.5 3.5l329 -180l332 168v-6v-354v0q0 -6 3 -11t7.5 -7.5t10.5 -2.5q4 0 8 1.5t7 4.5t4.5 6.5t1.5 8.5v0v358zM509 561l-280 157h573q6 0 13 -3zM639 267q3 0 6 1t5 2l4 4q2 1 3.5 3.5
t2 5t0.5 5.5q0 4 -1 7t-3 5.5t-4.5 4.5t-5.5 3t-7 1h-96l94 110q6 6 6.5 14.5t-5 15t-14 7t-15.5 -5.5l-88 -102l-90 106q-6 6 -14.5 5.5t-14.5 -6.5q-4 -5 -5 -10t0.5 -10.5t6.5 -9.5h-1l99 -113v-1h-99q-9 0 -15 -6t-6 -15q0 -2 0.5 -4t1.5 -4t2 -3.5t2.5 -3t3 -2.5
t3.5 -2t4 -1.5t4 -0.5h99v-42h-99q-9 0 -15 -6t-6 -15q0 -5 3 -10t7.5 -7.5t10.5 -2.5v-1h99v-48q0 -4 1 -7t3 -5.5t4.5 -4.5t5.5 -3t7 -1q8 0 14 6t6 15v48h96v1q9 0 15 6t6 14.5t-6 14.5t-15 6h-96v42h96z" />
    <glyph glyph-name="uniE68D" unicode="&#xe68d;" 
d="M671 725v35q0 12 -3.5 23t-10 19.5t-15.5 15.5t-19.5 10.5t-22.5 3.5h-177q-29 0 -49.5 -21t-20.5 -51v-35h-177v-41h36l36 -676q0 -30 20.5 -51t49.5 -21h389q30 0 50.5 21t20.5 51l35 676h35v41h-177zM393 760q0 15 10 23t25 8h163q15 0 25 -8t10 -23v-35h-233v35z
M738 15l-1 -1v-1q0 -9 -4.5 -17.5t-12.5 -13.5t-18 -5h-378q-10 0 -18 5t-13 13.5t-5 17.5v1v1l-35 669h519zM490 617h42v-573h-42v573zM432 45l-36 572l-40 -2l36 -572zM667 616l-40 2l-36 -573l40 -2z" />
    <glyph glyph-name="uniE68E" unicode="&#xe68e;" 
d="M838 390l-332 333l-32 -32l300 -301l-300 -307l32 -32l332 333v6zM582 390l-332 333l-32 -32l300 -301l-300 -307l32 -32l332 333v6z" />
    <glyph glyph-name="uniE68F" unicode="&#xe68f;" 
d="M939 345q-5 -4 -11 -5.5t-11.5 0t-10.5 5.5l-394 429l-394 -428q-5 -4 -11 -5.5t-11.5 0t-10.5 5.5q-6 7 -6 16.5t6 15.5l399 432q20 20 28 15q8 5 29 -15l398 -432q6 -7 6 -16.5t-6 -16.5zM382 445q6 7 15.5 7t16.5 -7l98 -98l98 99q4 4 10 5.5t12 0t10 -5.5
q7 -7 7 -16.5t-7 -16.5l-97 -97h81q10 0 16.5 -7t6.5 -16t-6.5 -16t-16.5 -7h-91v-68h91q10 0 16.5 -6.5t6.5 -16t-6.5 -16.5t-16.5 -7h-91v-91q0 -9 -6.5 -15.5t-16 -6.5t-16 6.5t-6.5 15.5v91h-91q-7 0 -12 3.5t-8 8.5t-3 11q0 10 6.5 16.5t16.5 6.5h91v68h-91q-7 0 -12 3
t-8 8.5t-3 11.5q0 4 1 7.5t3 6t5 4.5t6.5 3.5t7.5 1.5h80l-97 97q-4 3 -5.5 7.5t-1.5 8.5t1.5 8.5t5.5 7.5zM171 -3h27q-4 12 -4 23v296v22v23q0 6 3 11.5t8 8.5t12 3q9 0 15.5 -6.5t6.5 -16.5v-23v-22v-296q0 -14 7.5 -18.5t23.5 -4.5h15h455h15q15 0 22.5 4.5t7.5 18.5
v296v22v23q0 6 3.5 11.5t8.5 8.5t11 3q10 0 16.5 -6.5t6.5 -16.5v-22v-23v-296q0 -6 -1 -11.5t-3 -11.5h27q9 0 15.5 -6.5t6.5 -16t-6.5 -16t-15.5 -6.5h-91h-501h-91q-9 0 -16 6.5t-7 15.5q5 19 23 23zM494 812q-5 0 -8.5 -3.5t-3.5 -7.5q0 -3 1 -5t2.5 -3.5t4 -2.5t4.5 -1
v23z" />
    <glyph glyph-name="uniE690" unicode="&#xe690;" 
d="M880 697h-736q-28 0 -47.5 -19.5t-19.5 -46.5v-491q0 -28 19.5 -47.5t47.5 -19.5h736q28 0 47.5 19.5t19.5 47.5v491q0 11 -3.5 21t-9.5 18t-14 14.5t-18.5 9.5t-21.5 3zM144 646h736q7 0 11.5 -4.5t4.5 -10.5v-97l-380 -158l-388 159v96q0 4 2 7.5t5.5 5.5t8.5 2z
M880 124h-736q-2 0 -4 0.5t-4 1.5t-3.5 2.5t-2.5 3.5t-1.5 4t-0.5 4v340l378 -155h1v-1h2l1 -1h1h3h2v0h2h4q1 1 3 1v1h1l370 154v-339q0 -3 -1 -5.5t-3 -4.5l-2 -2q-2 -2 -4.5 -3t-5.5 -1z" />
    <glyph glyph-name="uniE691" unicode="&#xe691;" 
d="M790 297h-112v110h112v-110zM790 78h-112v109h112v-109zM567 297h-112v110h112v-110zM567 78h-112v109h112v-109zM343 297h-112v110h112v-110zM343 78h-112v109h112v-109zM774 517l-156 198q5 10 5 21q0 9 -3 17.5t-8 15t-12 12t-15.5 8t-17.5 2.5q-23 0 -39.5 -16
t-16.5 -38.5t16.5 -39t39.5 -16.5h3q1 0 4 1l129 -165h-384l129 165l7 -1q23 0 39.5 16.5t16.5 38.5q0 15 -7.5 27.5t-20.5 20t-28 7.5q-23 0 -39.5 -16t-16.5 -39q0 -11 4 -21l-155 -198h-184v-110h56l56 -439h670l56 439h56v110h-184z" />
    </font>
</defs>
</svg>
